<svg width="789" height="673" viewBox="0 0 789 673" fill="none" xmlns="http://www.w3.org/2000/svg">
<path d="M0.237475 425C1.21325 466.007 21.8203 500.854 52.5618 529.649C93.6515 568.138 146.256 591.99 196.602 608.432C315.528 647.271 466.712 648.982 588.026 614.128C588.105 614.286 588.185 614.444 588.264 614.602C588.501 614.602 588.738 614.602 588.975 614.602C588.975 614.523 588.975 614.444 588.975 614.365C588.517 614.519 588.593 614.138 588.264 614.128C588.196 613.72 588.765 613.946 588.975 613.89C588.975 614.049 588.975 614.206 588.975 614.365C589.169 614.378 589.507 614.267 589.45 614.602C589.585 614.546 589.743 614.705 589.687 614.839C589.613 615.423 590.271 614.765 589.687 614.839C589.553 614.895 589.394 614.737 589.45 614.602C589.292 614.602 589.134 614.602 588.975 614.602C589.129 615.061 588.749 614.985 588.738 615.314C588.738 615.789 588.738 616.263 588.738 616.738C589.052 616.685 589.052 617.028 588.738 616.975C588.794 617.11 588.636 617.268 588.501 617.212C588.501 617.291 588.501 617.371 588.501 617.45C589.356 617.437 588.806 617.549 588.738 617.924C588.664 618.508 589.322 617.85 588.738 617.924C588.402 617.981 588.514 617.643 588.501 617.45C588.187 617.503 588.186 617.159 588.501 617.212C588.445 617.078 588.603 616.919 588.738 616.975C588.738 616.896 588.738 616.817 588.738 616.738C588.259 616.817 588.743 616.184 588.264 616.263C588.326 616.713 587.884 616.322 587.789 616.619C587.948 617.134 588.105 617.647 588.264 618.162C588.741 618.265 588.27 618.667 588.975 618.755C588.817 619.111 588.659 619.467 588.501 619.823C588.427 620.406 589.085 619.749 588.501 619.823C588.342 619.823 588.185 619.823 588.026 619.823C588.342 620.1 588.659 620.376 588.975 620.653C588.58 620.812 588.185 620.969 587.789 621.128C587.948 621.958 588.105 622.789 588.264 623.62C589.024 623.514 589.218 623.786 588.501 624.094C588.438 624.544 588.881 624.153 588.975 624.45C588.817 625.122 588.659 625.795 588.501 626.467C588.815 626.414 588.815 626.758 588.501 626.704C589.911 627.498 587.07 627.465 588.975 628.128C589.381 628.989 590.489 627.531 588.975 628.128C588.58 628.128 588.185 628.128 587.789 628.128C587.789 628.287 587.789 628.444 587.789 628.603C588.026 628.603 588.264 628.603 588.501 628.603C588.448 628.289 588.791 628.289 588.738 628.603C588.664 629.187 589.322 628.529 588.738 628.603C588.659 628.603 588.58 628.603 588.501 628.603C588.58 629.552 588.659 630.501 588.738 631.45C588.738 631.529 588.738 631.609 588.738 631.688C589.052 631.635 589.053 631.978 588.738 631.925C588.725 632.119 588.836 632.457 588.501 632.4C588.962 633.473 588.263 632.431 588.975 632.756C588.817 633.19 588.659 633.626 588.501 634.061C589.271 634.338 588.405 634.676 588.026 634.535C588.513 635.356 589.577 635.943 589.569 636.908C589.134 636.711 588.698 636.512 588.264 636.315C588.342 636.671 588.422 637.027 588.501 637.383C588.264 637.699 588.026 638.016 587.789 638.332C587.789 638.767 587.789 639.202 587.789 639.637C588.095 640.015 588.47 639.602 588.738 639.519C588.738 639.44 588.738 639.36 588.738 639.281C588.284 639.042 588.257 639.737 588.026 639.4C588.224 638.965 588.422 638.529 588.62 638.095C588.833 638.18 588.714 638.405 588.738 638.569C588.664 639.153 589.322 638.495 588.738 638.569C588.13 638.649 588.732 639.056 588.738 639.281C589.383 639.464 590.09 638.493 589.45 639.756C589.764 639.703 589.765 640.046 589.45 639.993C589.529 640.349 589.609 640.705 589.687 641.061C589.533 641.143 589.418 641.479 589.213 641.417C589.213 641.575 589.213 641.733 589.213 641.892C589.292 642.129 589.371 642.366 589.45 642.603C589.764 642.55 589.765 642.894 589.45 642.841C589.695 643.53 588.913 644.007 588.975 643.078C588.897 643.078 588.817 643.078 588.738 643.078C588.791 643.392 588.448 643.392 588.501 643.078C588.342 643.157 588.185 643.237 588.026 643.315C586.87 645.516 588.102 643.804 588.501 644.146C588.422 644.66 588.342 645.174 588.264 645.688C588.428 645.713 588.653 645.592 588.738 645.807C588.659 646.4 588.58 646.993 588.501 647.587C467.918 682.466 317.672 681.07 198.975 643.078C148.93 627.059 97.136 603.903 55.884 566.905C24.9555 539.167 3.4486 505.533 0.000176475 466.172C0.0789596 452.448 0.158692 438.724 0.237475 425ZM588.026 645.926C587.948 645.926 587.868 645.926 587.789 645.926C586.13 646.732 589.136 646.84 588.026 645.926ZM588.264 645.688C588.185 645.688 588.105 645.688 588.026 645.688C588.026 645.767 588.026 645.847 588.026 645.926C588.161 645.982 588.32 645.823 588.264 645.688ZM587.789 645.688C587.475 645.635 587.474 645.979 587.789 645.926C587.789 645.847 587.789 645.767 587.789 645.688ZM587.789 645.688C587.868 645.688 587.948 645.688 588.026 645.688C588.142 644.75 587.673 644.75 587.789 645.688ZM588.026 643.315C586.394 643.468 587.938 642.641 588.026 643.315ZM589.213 642.841C589.134 642.841 589.054 642.841 588.975 642.841C588.975 642.919 588.975 642.999 588.975 643.078C589.11 643.134 589.269 642.975 589.213 642.841ZM588.975 642.841C589.032 642.505 588.695 642.617 588.501 642.603C588.501 642.762 588.501 642.919 588.501 643.078C588.58 643.078 588.659 643.078 588.738 643.078C588.682 642.943 588.841 642.785 588.975 642.841ZM589.45 642.603C589.315 642.547 589.157 642.706 589.213 642.841C589.292 642.841 589.371 642.841 589.45 642.841C589.45 642.762 589.45 642.682 589.45 642.603ZM588.975 642.129C588.469 642.132 587.388 642.02 588.501 642.603C588.422 642.124 589.054 642.608 588.975 642.129ZM589.213 641.892C589.134 641.892 589.054 641.892 588.975 641.892C588.975 641.97 588.975 642.05 588.975 642.129C589.11 642.185 589.269 642.026 589.213 641.892ZM589.213 641.417C589.474 640.75 588.586 640.212 589.45 639.993C589.45 639.914 589.45 639.835 589.45 639.756C589.121 639.745 589.197 639.365 588.738 639.519C588.501 639.914 588.264 640.309 588.026 640.705C588.342 641.101 588.659 641.496 588.975 641.892C588.989 641.698 588.877 641.36 589.213 641.417ZM588.026 640.705C587.948 640.705 587.868 640.705 587.789 640.705C587.736 641.019 588.079 641.019 588.026 640.705ZM587.789 640.705C586.928 640.3 588.386 639.192 587.789 640.705ZM587.789 638.332C587.205 638.258 587.863 638.916 587.789 638.332ZM588.264 637.146C588.208 637.28 588.366 637.439 588.501 637.383C588.557 637.248 588.398 637.09 588.264 637.146ZM588.264 637.146C587.68 637.22 588.338 636.562 588.264 637.146ZM588.264 634.061C588.359 633.656 588.14 633.6 587.908 633.349C587.948 633.745 587.986 634.139 588.026 634.535C588.04 634.342 587.929 634.004 588.264 634.061ZM588.501 634.061C588.422 634.061 588.342 634.061 588.264 634.061C588.209 634.375 588.555 634.376 588.501 634.061ZM588.026 632.874C587.952 633.458 588.61 632.8 588.026 632.874ZM588.026 632.4C587.682 632.307 587.682 632.966 588.026 632.874C588.026 632.716 588.026 632.558 588.026 632.4ZM588.501 631.925C588.209 631.897 587.927 631.523 588.026 631.213C588.026 631.609 588.026 632.004 588.026 632.4C588.185 632.4 588.342 632.4 588.501 632.4C588.501 632.241 588.501 632.083 588.501 631.925ZM588.738 631.688C588.603 631.632 588.445 631.79 588.501 631.925C588.58 631.925 588.659 631.925 588.738 631.925C588.738 631.846 588.738 631.766 588.738 631.688ZM588.264 631.213C588.207 631.549 588.545 631.437 588.738 631.45C588.795 631.115 588.457 631.226 588.264 631.213ZM588.026 630.976C588.026 631.055 588.026 631.134 588.026 631.213C588.105 631.213 588.185 631.213 588.264 631.213C588.32 631.078 588.161 630.92 588.026 630.976ZM588.026 630.738C587.712 630.685 587.712 631.029 588.026 630.976C588.026 630.897 588.026 630.817 588.026 630.738ZM588.026 630.264C588.026 630.422 588.026 630.58 588.026 630.738C588.371 630.831 588.371 630.172 588.026 630.264ZM588.026 630.027C587.712 629.973 587.712 630.317 588.026 630.264C588.026 630.185 588.026 630.105 588.026 630.027ZM588.026 629.552C588.026 629.71 588.026 629.868 588.026 630.027C588.371 630.119 588.371 629.46 588.026 629.552ZM587.789 628.84C587.845 629.051 587.619 629.619 588.026 629.552C587.77 629.061 588.858 628.82 587.789 628.84ZM587.789 628.603C587.475 628.55 587.474 628.893 587.789 628.84C587.789 628.761 587.789 628.682 587.789 628.603ZM587.789 628.128C587.127 628.091 587.912 627.07 587.789 628.128ZM587.789 626.467C587.127 626.504 587.912 627.525 587.789 626.467ZM588.501 626.467C588.422 626.467 588.342 626.467 588.264 626.467C588.208 626.602 588.366 626.76 588.501 626.704C588.501 626.626 588.501 626.546 588.501 626.467ZM587.789 626.467C587.948 626.467 588.105 626.467 588.264 626.467C588.01 625.797 588.95 625.133 587.908 625.043C587.868 625.518 587.829 625.992 587.789 626.467ZM588.026 624.331C587.876 625.286 589.091 624.681 588.026 624.331ZM588.026 624.094C587.711 624.041 587.712 624.385 588.026 624.331C588.026 624.253 588.026 624.173 588.026 624.094ZM588.264 623.62C587.929 623.563 588.04 623.9 588.026 624.094C588.185 624.094 588.342 624.094 588.501 624.094C588.422 623.936 588.342 623.778 588.264 623.62ZM588.026 619.823C587.443 619.897 588.1 619.239 588.026 619.823ZM588.264 618.162C587.68 618.088 588.338 618.745 588.264 618.162ZM588.501 615.789C588.342 615.789 588.185 615.789 588.026 615.789C588.04 615.982 587.929 616.32 588.264 616.263C588.342 616.105 588.422 615.947 588.501 615.789ZM588.738 615.314C588.659 615.314 588.58 615.314 588.501 615.314C588.501 615.473 588.501 615.63 588.501 615.789C588.836 615.846 588.725 615.508 588.738 615.314ZM588.501 615.314C588.488 615.12 588.599 614.783 588.264 614.839C588.317 615.155 587.973 615.154 588.026 614.839C588.026 615.156 588.026 615.473 588.026 615.789C587.985 615.638 588.35 615.273 588.501 615.314ZM588.264 614.602C588.129 614.546 587.97 614.705 588.026 614.839C588.105 614.839 588.185 614.839 588.264 614.839C588.264 614.761 588.264 614.681 588.264 614.602Z" fill="#6BE1D3"/>
<path d="M588.265 645.69C588.321 645.824 588.163 645.983 588.028 645.927C589.138 646.841 586.132 646.734 587.791 645.927C587.476 645.98 587.477 645.636 587.791 645.69C587.675 644.751 588.144 644.751 588.028 645.69C588.107 645.69 588.187 645.69 588.265 645.69C588.344 645.175 588.424 644.662 588.503 644.147C588.104 643.806 586.872 645.518 588.028 643.317C586.395 643.469 587.94 642.643 588.028 643.317C588.187 643.238 588.344 643.158 588.503 643.079C588.503 642.921 588.503 642.763 588.503 642.605C587.39 642.021 588.47 642.133 588.977 642.13C588.977 642.051 588.977 641.972 588.977 641.893C588.661 641.497 588.344 641.102 588.028 640.706C588.081 641.021 587.738 641.021 587.791 640.706C586.93 640.301 588.388 639.193 587.791 640.706C587.87 640.706 587.949 640.706 588.028 640.706C588.265 640.311 588.503 639.916 588.74 639.52C588.471 639.603 588.096 640.016 587.791 639.639C587.791 639.204 587.791 638.768 587.791 638.333C587.207 638.259 587.865 638.917 587.791 638.333C588.028 638.017 588.265 637.7 588.503 637.384C588.368 637.44 588.209 637.282 588.265 637.147C587.682 637.221 588.339 636.563 588.265 637.147C588.4 637.091 588.559 637.249 588.503 637.384C588.424 637.028 588.344 636.672 588.265 636.316C588.7 636.514 589.136 636.712 589.57 636.91C589.579 635.944 588.515 635.358 588.028 634.537C587.988 634.141 587.949 633.746 587.909 633.35C588.142 633.602 588.36 633.658 588.265 634.062C588.344 634.062 588.424 634.062 588.503 634.062C588.661 633.627 588.819 633.192 588.977 632.757C588.264 632.432 588.964 633.474 588.503 632.401C588.344 632.401 588.187 632.401 588.028 632.401C588.028 632.559 588.028 632.717 588.028 632.876C587.954 633.459 588.612 632.801 588.028 632.876C587.683 632.968 587.683 632.309 588.028 632.401C588.028 632.005 588.028 631.61 588.028 631.214C588.028 631.136 588.028 631.056 588.028 630.977C587.714 631.03 587.714 630.687 588.028 630.74C588.028 630.581 588.028 630.424 588.028 630.265C587.714 630.318 587.714 629.975 588.028 630.028C588.028 629.869 588.028 629.712 588.028 629.553C587.621 629.621 587.847 629.052 587.791 628.841C587.476 628.895 587.477 628.551 587.791 628.604C587.791 628.446 587.791 628.288 587.791 628.13C587.129 628.093 587.914 627.071 587.791 628.13C588.187 628.13 588.581 628.13 588.977 628.13C587.071 627.466 589.913 627.499 588.503 626.706C588.368 626.762 588.209 626.603 588.265 626.468C588.107 626.468 587.949 626.468 587.791 626.468C587.129 626.505 587.914 627.527 587.791 626.468C587.831 625.994 587.87 625.519 587.909 625.045C588.952 625.135 588.012 625.798 588.265 626.468C588.344 626.468 588.424 626.468 588.503 626.468C588.661 625.796 588.819 625.123 588.977 624.451C588.882 624.154 588.44 624.545 588.503 624.095C588.344 624.095 588.187 624.095 588.028 624.095C588.028 624.174 588.028 624.254 588.028 624.333C587.878 625.288 589.093 624.682 588.028 624.333C587.714 624.386 587.713 624.042 588.028 624.095C588.041 623.902 587.93 623.564 588.265 623.621C588.107 622.79 587.949 621.96 587.791 621.129C588.187 620.971 588.581 620.813 588.977 620.655C588.661 620.377 588.344 620.101 588.028 619.824C587.444 619.898 588.102 619.24 588.028 619.824C588.187 619.824 588.344 619.824 588.503 619.824C588.661 619.468 588.819 619.112 588.977 618.756C588.272 618.668 588.743 618.266 588.265 618.163C587.682 618.089 588.339 618.747 588.265 618.163C588.107 617.649 587.949 617.135 587.791 616.621C587.886 616.323 588.328 616.715 588.265 616.265C587.93 616.322 588.041 615.984 588.028 615.79C588.028 615.474 588.028 615.157 588.028 614.841C587.972 614.706 588.131 614.548 588.265 614.604C588.187 614.445 588.107 614.287 588.028 614.129C588.107 614.129 588.187 614.129 588.265 614.129C588.595 614.139 588.519 614.52 588.977 614.366C588.977 614.208 588.977 614.05 588.977 613.892C639.651 598.42 689.663 577.929 731.712 541.753C763.301 514.577 785.544 480.398 788.783 440.901C788.745 464.272 789.025 487.056 781.189 507.226C773.684 526.545 761.994 544.849 746.544 560.855C702.065 606.935 644.885 629.986 588.503 647.588C588.581 646.995 588.661 646.402 588.74 645.808C588.654 645.594 588.43 645.714 588.265 645.69ZM588.028 645.69C587.949 645.69 587.87 645.69 587.791 645.69C587.791 645.768 587.791 645.848 587.791 645.927C587.87 645.927 587.949 645.927 588.028 645.927C588.028 645.848 588.028 645.768 588.028 645.69ZM589.452 642.842C589.373 642.842 589.293 642.842 589.215 642.842C589.271 642.977 589.112 643.135 588.977 643.079C588.915 644.009 589.697 643.531 589.452 642.842ZM588.74 643.079C588.661 643.079 588.581 643.079 588.503 643.079C588.449 643.394 588.793 643.394 588.74 643.079ZM588.977 642.842C588.842 642.786 588.684 642.945 588.74 643.079C588.819 643.079 588.898 643.079 588.977 643.079C588.977 643.001 588.977 642.921 588.977 642.842ZM589.452 642.605C589.452 642.684 589.452 642.763 589.452 642.842C589.767 642.895 589.766 642.552 589.452 642.605ZM589.452 642.605C589.373 642.367 589.293 642.13 589.215 641.893C589.271 642.028 589.112 642.186 588.977 642.13C589.056 642.61 588.424 642.125 588.503 642.605C588.696 642.618 589.034 642.506 588.977 642.842C589.056 642.842 589.136 642.842 589.215 642.842C589.159 642.707 589.317 642.549 589.452 642.605ZM589.215 641.418C588.879 641.361 588.991 641.699 588.977 641.893C589.056 641.893 589.136 641.893 589.215 641.893C589.215 641.734 589.215 641.577 589.215 641.418ZM589.452 639.994C588.588 640.214 589.476 640.751 589.215 641.418C589.42 641.48 589.534 641.144 589.689 641.062C589.61 640.706 589.531 640.35 589.452 639.994ZM589.452 639.757C589.452 639.836 589.452 639.916 589.452 639.994C589.767 640.048 589.766 639.704 589.452 639.757ZM588.74 639.283C588.74 639.361 588.74 639.441 588.74 639.52C589.198 639.366 589.122 639.747 589.452 639.757C590.092 638.495 589.384 639.466 588.74 639.283ZM588.74 639.283C588.733 639.058 588.131 638.65 588.74 638.571C588.715 638.406 588.835 638.182 588.621 638.096C588.424 638.531 588.225 638.967 588.028 639.401C588.259 639.738 588.286 639.043 588.74 639.283ZM588.74 638.571C588.666 639.154 589.324 638.497 588.74 638.571ZM588.503 634.062C588.557 634.377 588.211 634.376 588.265 634.062C587.93 634.005 588.041 634.343 588.028 634.537C588.407 634.677 589.272 634.339 588.503 634.062ZM588.74 631.926C588.661 631.926 588.581 631.926 588.503 631.926C588.503 632.085 588.503 632.242 588.503 632.401C588.838 632.458 588.727 632.12 588.74 631.926ZM588.74 631.689C588.74 631.768 588.74 631.848 588.74 631.926C589.055 631.979 589.054 631.636 588.74 631.689ZM588.74 631.689C588.74 631.61 588.74 631.531 588.74 631.452C588.546 631.438 588.208 631.55 588.265 631.214C588.187 631.214 588.107 631.214 588.028 631.214C587.928 631.524 588.21 631.899 588.503 631.926C588.447 631.792 588.605 631.633 588.74 631.689ZM588.503 628.604C588.265 628.604 588.028 628.604 587.791 628.604C587.791 628.683 587.791 628.763 587.791 628.841C588.86 628.822 587.772 629.063 588.028 629.553C588.373 629.461 588.373 630.12 588.028 630.028C588.028 630.107 588.028 630.186 588.028 630.265C588.373 630.173 588.373 630.832 588.028 630.74C588.028 630.819 588.028 630.898 588.028 630.977C588.163 630.921 588.321 631.08 588.265 631.214C588.459 631.228 588.797 631.117 588.74 631.452C588.661 630.503 588.581 629.553 588.503 628.604ZM588.74 628.604C588.666 629.188 589.324 628.53 588.74 628.604ZM588.503 628.604C588.581 628.604 588.661 628.604 588.74 628.604C588.793 628.29 588.449 628.29 588.503 628.604ZM588.977 628.13C589.383 628.99 590.49 627.533 588.977 628.13ZM588.503 626.468C588.503 626.547 588.503 626.627 588.503 626.706C588.817 626.759 588.817 626.415 588.503 626.468ZM588.265 623.621C588.344 623.779 588.424 623.937 588.503 624.095C589.22 623.787 589.026 623.516 588.265 623.621ZM588.503 619.824C588.429 620.408 589.086 619.75 588.503 619.824ZM588.74 617.926C588.666 618.509 589.324 617.852 588.74 617.926ZM588.503 617.451C588.516 617.645 588.404 617.983 588.74 617.926C588.807 617.551 589.358 617.439 588.503 617.451ZM588.503 617.214C588.187 617.161 588.188 617.504 588.503 617.451C588.503 617.372 588.503 617.293 588.503 617.214ZM588.74 616.977C588.605 616.921 588.447 617.079 588.503 617.214C588.637 617.27 588.796 617.111 588.74 616.977ZM588.74 616.739C588.74 616.818 588.74 616.898 588.74 616.977C589.054 617.03 589.054 616.686 588.74 616.739ZM588.74 615.315C588.727 615.509 588.838 615.847 588.503 615.79C588.424 615.949 588.344 616.106 588.265 616.265C588.745 616.186 588.261 616.818 588.74 616.739C588.74 616.265 588.74 615.79 588.74 615.315ZM588.503 615.315C588.352 615.275 587.987 615.639 588.028 615.79C588.187 615.79 588.344 615.79 588.503 615.79C588.503 615.632 588.503 615.474 588.503 615.315ZM588.977 614.604C588.74 614.604 588.503 614.604 588.265 614.604C588.265 614.682 588.265 614.762 588.265 614.841C588.6 614.784 588.489 615.122 588.503 615.315C588.581 615.315 588.661 615.315 588.74 615.315C588.75 614.986 589.131 615.062 588.977 614.604ZM589.689 614.841C589.615 615.425 590.273 614.767 589.689 614.841ZM588.265 614.841C588.187 614.841 588.107 614.841 588.028 614.841C587.975 615.155 588.318 615.156 588.265 614.841ZM589.452 614.604C589.396 614.738 589.554 614.897 589.689 614.841C589.745 614.706 589.587 614.548 589.452 614.604ZM588.977 614.366C588.977 614.445 588.977 614.525 588.977 614.604C589.136 614.604 589.293 614.604 589.452 614.604C589.509 614.268 589.171 614.38 588.977 614.366Z" fill="#27BFAD"/>
<path d="M0.237355 425.002C0.12535 369.285 41.7836 322.865 87.6819 293.538C152.284 252.262 227.211 232.984 304.929 223.298C304.533 224.999 304.138 226.699 303.742 228.4C303.584 236.665 303.426 244.932 303.268 253.197C286.749 258.821 270.477 265.003 254.503 271.944C248.385 274.603 242.822 277.856 237.773 283.097C236.191 284.758 234.61 286.419 233.027 288.08C228.967 291.054 224.726 294.156 221.162 298.047C193.623 324.749 185.008 360.232 183.195 397.712C182.324 400.6 181.455 403.486 180.584 406.374C180.684 406.626 180.357 407.494 180.822 407.442C183.273 409.577 185.726 411.713 188.178 413.849C188.019 414.402 187.862 414.956 187.703 415.51C184.895 431.056 183.183 447.062 181.534 463.088C186.082 465.659 190.63 468.23 195.178 470.8C196.593 471.212 197.403 472.142 199.212 471.75C224.524 469.377 249.836 467.004 275.148 464.631C275.317 464.147 275.995 464.662 275.978 464.156C276.453 464.156 276.928 464.156 277.402 464.156C298.522 462.179 319.641 460.201 340.761 458.224C309.66 469.834 279.692 484.847 250.232 500.7C249.876 500.977 249.52 501.253 249.164 501.531C250.271 502.638 251.378 503.745 252.486 504.853C243.639 510.873 234.102 516.685 225.197 523.125C237.022 535.03 248.848 546.933 260.673 558.838C261.463 558.838 262.255 558.838 263.046 558.838C287.646 556.544 312.245 554.251 336.846 551.957C338.917 551.883 340.239 550.887 342.066 550.295C346.259 549.9 350.45 549.505 354.643 549.109C398.702 544.996 442.76 540.882 486.818 536.769C491.363 537.773 495.492 537.394 499.632 535.583C527.555 532.973 555.476 530.362 583.399 527.752C583.874 527.752 584.348 527.752 584.823 527.752C585.139 528.068 585.456 528.385 585.772 528.701C600.01 527.356 614.248 526.012 628.486 524.667C629.039 524.588 629.593 524.509 630.147 524.43C631.175 522.927 632.204 521.424 633.232 519.921C640.351 518.102 647.47 516.283 654.589 514.463C659.367 511.795 663.547 507.423 665.623 502.48C666.888 497.734 668.154 492.988 669.42 488.242C670.183 485.38 668.989 482.56 667.284 480.411C655.498 468.546 643.713 456.681 631.926 444.816C645.258 434.644 659.317 422.158 670.25 408.865C685.176 409.89 700.128 405.894 712.489 397.95C717.591 393.244 722.693 388.537 727.795 383.83C715.97 371.926 704.144 360.022 692.319 348.117C688.838 347.721 685.359 347.326 681.878 346.93C680.058 345.269 678.24 343.608 676.42 341.947C674.443 341.235 672.465 340.523 670.488 339.811C644.463 342.343 618.44 344.874 592.416 347.405C581.516 349.077 570.147 350.169 559.788 352.863C555.358 341.433 550.929 330.003 546.499 318.573C539.615 300.811 522.599 282.644 505.446 273.368C505.502 273.233 505.344 273.075 505.209 273.131C504.576 272.814 503.944 272.497 503.311 272.181C503.367 272.047 503.209 271.888 503.073 271.944C502.44 271.628 501.808 271.311 501.175 270.995C501.231 270.859 501.072 270.702 500.938 270.758C500.304 270.441 499.672 270.124 499.039 269.808C499.095 269.674 498.937 269.515 498.802 269.571C498.169 269.255 497.537 268.938 496.904 268.622C496.96 268.487 496.801 268.329 496.666 268.385C496.033 268.068 495.401 267.751 494.768 267.435C494.824 267.301 494.665 267.142 494.531 267.198C494.372 267.119 494.214 267.04 494.056 266.961C493.581 266.723 493.107 266.486 492.632 266.249C492.688 266.114 492.53 265.956 492.395 266.012C491.762 265.696 491.13 265.378 490.496 265.062C490.552 264.928 490.394 264.769 490.259 264.825C489.863 264.706 489.468 264.588 489.073 264.469C489.31 265.221 489.547 265.972 489.785 266.723C489.706 266.723 489.626 266.723 489.547 266.723C489.603 266.589 489.445 266.43 489.31 266.486C488.994 266.328 488.677 266.17 488.361 266.012C488.417 265.877 488.258 265.718 488.123 265.774C488.045 265.774 487.965 265.774 487.886 265.774C487.942 265.639 487.784 265.481 487.649 265.537C487.57 265.537 487.49 265.537 487.412 265.537C487.468 265.402 487.309 265.244 487.174 265.3C486.858 265.141 486.541 264.984 486.225 264.825C486.281 264.69 486.123 264.532 485.988 264.588C485.909 264.588 485.829 264.588 485.75 264.588C485.806 264.453 485.648 264.294 485.513 264.35C485.434 264.35 485.355 264.35 485.276 264.35C485.332 264.216 485.173 264.057 485.039 264.113C477.649 260.063 469.681 257.578 461.546 255.333C461.467 255.333 461.388 255.333 461.309 255.333C460.913 254.7 460.518 254.068 460.122 253.435C459.47 246.982 458.255 241.053 455.376 235.519C454.902 235.321 454.427 235.123 453.952 234.925C452.45 233.976 450.946 233.027 449.444 232.078C451.105 228.677 452.766 225.275 454.427 221.874C541.483 231.093 625.492 251.647 697.302 297.572C746.729 329.182 792.561 379.789 788.781 440.901C785.542 480.398 763.299 514.577 731.711 541.753C689.661 577.928 639.649 598.42 588.975 613.891C588.765 613.947 588.196 613.722 588.264 614.129C588.185 614.129 588.105 614.129 588.026 614.129C466.712 648.983 315.528 647.272 196.602 608.434C146.256 591.992 93.6514 568.139 52.5617 529.65C21.8201 500.856 1.21313 466.008 0.237355 425.002Z" fill="#95EAE0"/>
<path d="M340.76 458.224C369.157 455.535 397.553 452.845 425.95 450.156C428.402 449.919 430.855 449.681 433.307 449.444C433.623 449.444 433.94 449.444 434.256 449.444C463.444 446.675 492.631 443.907 521.819 441.139C536.572 439.873 551.323 438.607 566.075 437.342C566.244 436.994 566.499 437.228 566.669 436.986C565.641 432.754 564.612 428.522 563.584 424.29C561.685 416.538 559.787 408.787 557.889 401.035C560.815 398.622 563.742 396.21 566.669 393.797C569.671 379.464 563.833 365.561 559.787 352.863C570.146 350.17 581.515 349.077 592.416 347.406C618.44 344.874 644.463 342.344 670.487 339.812C672.464 340.524 674.442 341.236 676.419 341.948C678.239 343.609 680.058 345.27 681.877 346.931C685.358 347.327 688.838 347.722 692.318 348.117C704.143 360.022 715.969 371.926 727.794 383.831C722.693 388.537 717.591 393.244 712.489 397.95C700.127 405.895 685.176 409.89 670.249 408.866C659.317 422.158 645.257 434.644 631.926 444.817C643.712 456.682 655.497 468.547 667.283 480.411C668.988 482.56 670.182 485.381 669.419 488.242C668.154 492.988 666.887 497.734 665.622 502.48C663.546 507.424 659.366 511.796 654.588 514.464C647.469 516.283 640.35 518.102 633.231 519.922C632.203 521.424 631.174 522.928 630.146 524.43C629.593 524.509 629.038 524.589 628.485 524.668C614.247 526.013 600.009 527.357 585.771 528.702C585.455 528.386 585.138 528.069 584.822 527.753C584.347 527.753 583.873 527.753 583.398 527.753C555.476 530.363 527.554 532.973 499.632 535.583C495.491 537.394 491.362 537.773 486.818 536.77C442.759 540.883 398.701 544.997 354.642 549.109C350.45 549.505 346.258 549.9 342.065 550.296C340.238 550.887 338.916 551.884 336.845 551.957C312.245 554.251 287.645 556.544 263.045 558.839C262.254 558.839 261.463 558.839 260.672 558.839C248.847 546.934 237.021 535.03 225.196 523.125C234.101 516.686 243.639 510.874 252.485 504.853C251.377 503.746 250.271 502.639 249.163 501.531C249.519 501.254 249.875 500.978 250.231 500.701C279.691 484.847 309.659 469.835 340.76 458.224Z" fill="#27BFAD"/>
<path d="M341.709 170.144C341.765 170.009 341.606 169.851 341.471 169.907C341.155 169.748 340.838 169.591 340.522 169.432C338.465 167.573 336.409 165.714 334.352 163.855C332.675 160.057 330.265 156.803 326.284 154.719C324.189 153.929 322.092 153.137 319.996 152.346C312.53 152.202 306.517 155.721 301.249 160.889C296.701 158.358 292.153 155.827 287.605 153.296C287.13 153.058 286.655 152.821 286.181 152.584C285.865 152.307 285.548 152.03 285.232 151.753C277.589 131.571 266.84 112.517 262.451 91.0048C262.53 86.5749 262.61 82.1459 262.688 77.716C266.599 71.2625 269.333 63.9594 275.028 58.3762C280.13 61.3026 285.232 64.2299 290.334 67.1562C296.283 62.5432 303.684 61.4411 310.623 59.2067C305.481 56.2405 300.34 53.2743 295.198 50.308C297.432 40.8873 300.41 31.5216 308.012 24.4425C313.273 27.3688 318.532 30.2962 323.793 33.2225C326.878 30.691 329.962 28.1605 333.047 25.629C342.651 21.6936 353.047 18.5195 363.659 17.0862C388.28 13.7602 413.12 10.6526 438.052 9.01807C443.665 12.7978 453.279 18.0164 453.476 25.8663C453.555 26.4197 453.635 26.974 453.714 27.5274C453.872 31.2055 454.03 34.8836 454.188 38.5618C454.313 38.8114 454.68 38.6254 454.9 38.6804C456.877 38.483 458.856 38.2846 460.833 38.0872C460.437 37.8897 460.042 37.6913 459.646 37.4939C459.488 35.1997 459.33 32.9065 459.172 30.6122C463.918 32.5106 468.664 34.409 473.41 36.3074C475.235 36.3644 474.19 37.8423 474.833 38.7991C475.308 49.2402 475.783 59.6813 476.257 70.1225C476.643 78.6235 473.87 89.0789 467.714 94.8015C462.983 99.2001 456.046 101.864 449.442 99.6662C446.929 99.0729 444.568 98.5509 441.73 98.717C429.549 99.4289 417.367 100.141 405.186 100.853C389.781 101.752 374.765 97.671 361.76 92.5472C361.009 98.4398 360.258 104.333 359.506 110.226C354.997 111.808 350.489 113.39 345.98 114.972C347.483 134.509 348.986 154.047 350.489 173.585C347.488 173.061 344.489 171.59 341.709 170.144Z" fill="#0A2639"/>
<path d="M326.284 154.72C330.265 156.803 332.675 160.057 334.352 163.856C336.409 165.714 338.465 167.574 340.522 169.432C334.101 166.169 331.903 159.04 326.284 154.72Z" fill="black"/>
<path d="M275.027 58.3758C276.363 56.4764 278.591 55.9325 280.366 54.8163C285.309 53.3137 290.254 51.8102 295.197 50.3076C300.339 53.2739 305.48 56.2401 310.622 59.2063C303.683 61.4407 296.282 62.5427 290.333 67.1558C285.231 64.2295 280.129 61.3021 275.027 58.3758Z" fill="#114264"/>
<path d="M454.901 38.6811C456.483 38.2853 458.065 37.8904 459.647 37.4946C460.043 37.6921 460.438 37.8904 460.833 38.0879C458.856 38.2853 456.878 38.4837 454.901 38.6811Z" fill="#114264"/>
<path d="M453.715 27.5264C455.535 28.5543 457.354 29.5833 459.173 30.6113C459.332 32.9055 459.489 35.1987 459.648 37.4929C458.066 37.8887 456.484 38.2836 454.902 38.6794C454.682 38.6244 454.314 38.8104 454.19 38.5608C454.032 34.8826 453.874 31.2045 453.715 27.5264Z" fill="black"/>
<path d="M459.172 30.6127C457.352 29.5847 455.533 28.5558 453.714 27.5278C453.635 26.9744 453.555 26.4201 453.477 25.8667C460.443 28.4817 467.028 32.5528 473.41 36.3078C468.664 34.4095 463.918 32.5111 459.172 30.6127Z" fill="#114264"/>
<path d="M308.013 24.4418C311.058 21.9103 314.104 19.3797 317.149 16.8482C326.683 12.9252 337 9.77955 347.523 8.30545C372.22 4.84564 396.854 2.17081 422.035 0C427.374 3.0061 432.713 6.01125 438.052 9.01735C413.12 10.6519 388.28 13.7595 363.659 17.0855C353.047 18.5188 342.652 21.6929 333.048 25.6283C329.963 28.1598 326.878 30.6903 323.793 33.2218C318.533 30.2955 313.273 27.3681 308.013 24.4418Z" fill="#114264"/>
<path d="M521.822 441.14C521.189 431.965 520.557 422.79 519.924 413.614C521.189 412.981 522.455 412.348 523.72 411.715C523.72 412.23 523.72 412.743 523.72 413.258C523.875 413.339 523.99 413.675 524.195 413.614C529.455 420.1 534.715 426.586 539.975 433.072C549.136 432.949 556.6 429.3 563.587 424.292C564.614 428.524 565.643 432.756 566.671 436.988C566.501 437.23 566.247 436.996 566.078 437.344C551.326 438.609 536.574 439.875 521.822 441.14Z" fill="#F1C099"/>
<path d="M524.194 413.612C525.024 414.087 525.855 414.562 526.686 415.036C539.051 414.627 548.206 407.835 557.89 401.036C559.789 408.788 561.687 416.539 563.585 424.291C556.599 429.299 549.135 432.948 539.974 433.071C534.714 426.585 529.454 420.098 524.194 413.612Z" fill="#E4883F"/>
<path d="M519.926 413.614C521.034 412.902 522.14 412.19 523.248 411.478C523.442 411.491 523.78 411.379 523.723 411.715C522.457 412.348 521.191 412.98 519.926 413.614Z" fill="#F7DBC5"/>
<path d="M390.357 286.894C391.583 287.922 392.809 288.951 394.035 289.979C397.239 289.82 400.442 289.663 403.646 289.504C411.38 289.173 422.144 287.053 428.087 280.012C429.115 279.894 430.144 279.775 431.172 279.656C431.487 304.354 429.226 327.992 422.511 349.778C417.556 346.294 412.943 341.249 408.866 336.608C403.487 328.856 398.109 321.105 392.73 313.353C388.565 305.446 386.677 296.933 386.797 287.25C387.984 287.131 389.17 287.013 390.357 286.894Z" fill="#04686B"/>
<path d="M390.358 286.895C389.093 285.748 387.827 284.601 386.561 283.454C387.036 279.223 387.511 274.99 387.985 270.759C387.827 274.912 387.669 279.064 387.511 283.217C389.924 285.313 392.335 287.41 394.748 289.505C397.715 289.505 400.681 289.505 403.647 289.505C400.443 289.664 397.24 289.821 394.036 289.98C392.81 288.952 391.585 287.923 390.358 286.895Z" fill="#F2BF98"/>
<path d="M187.704 415.51C192.885 418.358 198.066 421.205 203.247 424.053C220.51 447.551 248.622 456.376 276.454 458.224C276.295 460.201 276.138 462.179 275.979 464.156C275.995 464.662 275.317 464.148 275.148 464.631C249.836 467.004 224.525 469.377 199.213 471.75C197.404 472.142 196.594 471.213 195.179 470.801C190.63 468.23 186.083 465.659 181.534 463.089C183.184 447.062 184.895 431.056 187.704 415.51Z" fill="#F3C09A"/>
<path d="M187.703 415.51C187.861 414.956 188.019 414.402 188.178 413.849C188.573 414.007 188.968 414.165 189.364 414.323C196.567 418.442 203.861 422.178 210.721 427.137C211.512 427.612 212.303 428.087 213.094 428.561C213.038 428.696 213.196 428.854 213.331 428.798C213.806 429.036 214.28 429.273 214.755 429.51C214.699 429.645 214.858 429.804 214.992 429.748C233.567 440.444 254.784 444.671 277.876 444.46C277.402 449.048 276.927 453.636 276.453 458.223C248.621 456.375 220.509 447.551 203.246 424.052C198.065 421.205 192.884 418.357 187.703 415.51Z" fill="#E8873E"/>
<path d="M524.194 413.611C523.989 413.673 523.874 413.337 523.72 413.255C523.72 412.741 523.72 412.227 523.72 411.713C523.776 411.377 523.439 411.489 523.245 411.475C521.84 363.236 514.393 317.229 502.125 273.605C499.713 272.181 497.301 270.757 494.888 269.333C494.69 269.136 494.492 268.938 494.294 268.74C494.216 268.147 494.136 267.554 494.057 266.96C494.216 267.039 494.373 267.119 494.532 267.198C494.476 267.333 494.634 267.491 494.769 267.435C495.402 267.751 496.034 268.068 496.667 268.384C496.611 268.519 496.77 268.678 496.905 268.622C497.538 268.938 498.17 269.255 498.803 269.571C498.747 269.706 498.906 269.864 499.04 269.808C499.674 270.124 500.306 270.441 500.939 270.757C500.883 270.892 501.041 271.051 501.176 270.995C501.809 271.311 502.441 271.628 503.075 271.944C503.019 272.079 503.177 272.237 503.312 272.181C503.945 272.497 504.577 272.814 505.21 273.13C505.154 273.265 505.313 273.424 505.448 273.368C522.6 282.644 539.617 300.811 546.5 318.573C550.93 330.003 555.359 341.432 559.789 352.863C563.835 365.56 569.673 379.463 566.671 393.797C563.744 396.209 560.817 398.621 557.891 401.034C548.206 407.833 539.051 414.626 526.686 415.035C525.855 414.56 525.025 414.086 524.194 413.611Z" fill="#06686B"/>
<path d="M500.701 272.893C500.757 272.758 500.598 272.6 500.463 272.656C499.83 272.339 499.198 272.022 498.565 271.706C498.621 271.572 498.463 271.413 498.328 271.469C497.998 271.459 498.075 271.078 497.616 271.232C497.22 270.994 496.825 270.757 496.429 270.52C496.485 270.385 496.327 270.227 496.192 270.283C496.113 270.283 496.034 270.283 495.955 270.283C496.011 270.148 495.852 269.989 495.717 270.045C495.243 269.808 494.768 269.571 494.294 269.333C494.35 269.199 494.191 269.04 494.056 269.096C493.978 269.096 493.898 269.096 493.819 269.096C493.875 268.961 493.717 268.803 493.582 268.859C493.266 268.7 492.949 268.543 492.633 268.384C492.689 268.248 492.53 268.091 492.395 268.147C492.316 268.147 492.237 268.147 492.158 268.147C492.214 268.012 492.055 267.854 491.921 267.91C491.842 267.91 491.762 267.91 491.683 267.91C491.739 267.775 491.581 267.616 491.446 267.672C491.13 267.514 490.813 267.356 490.497 267.198C490.553 267.062 490.394 266.904 490.26 266.96C490.181 266.96 490.101 266.96 490.022 266.96C490.078 266.826 489.92 266.667 489.785 266.723C489.548 265.971 489.31 265.221 489.073 264.469C489.469 264.587 489.864 264.706 490.26 264.825C490.204 264.959 490.362 265.118 490.497 265.062C491.13 265.378 491.762 265.695 492.395 266.011C492.339 266.147 492.498 266.304 492.633 266.248C493.107 266.486 493.582 266.723 494.056 266.96C494.135 267.554 494.215 268.147 494.294 268.74C494.491 268.938 494.689 269.136 494.887 269.333C497.3 270.757 499.712 272.181 502.125 273.605C501.65 273.367 501.175 273.13 500.701 272.893Z" fill="#000A0A"/>
<path d="M425.95 450.157C425.099 403.962 413.926 362.134 392.966 324.27C384.634 314.761 379.42 303.313 378.965 290.573C378.591 280.088 379.719 269.846 380.864 259.962C382.287 259.764 383.711 259.566 385.135 259.369C385.136 260.033 385.412 259.224 385.61 259.369C387.942 262.232 387.647 266.919 387.983 270.759C387.508 274.99 387.033 279.223 386.559 283.454C387.824 284.601 389.09 285.749 390.355 286.895C389.169 287.014 387.983 287.132 386.796 287.251C386.675 296.934 388.563 305.447 392.728 313.354C398.108 321.106 403.486 328.857 408.865 336.609C412.942 341.251 417.555 346.295 422.509 349.779C429.225 327.993 431.485 304.356 431.171 279.658C430.143 279.776 429.114 279.895 428.086 280.013C431.374 276.547 432.285 272.525 433.069 268.03C432.911 259.013 432.753 249.995 432.595 240.978C437.156 238.825 441.764 236.872 446.121 234.215C448.731 234.452 451.341 234.689 453.952 234.927C454.426 235.124 454.901 235.323 455.375 235.52C458.254 241.054 459.469 246.983 460.121 253.436C460.036 254.946 460.555 255.819 459.884 257.114C446.328 283.277 435.913 306.977 432.12 337.321C427.557 373.821 430.935 413.071 433.307 449.445C430.855 449.682 428.402 449.919 425.95 450.157Z" fill="#378651"/>
<path d="M446.12 234.215C447.228 233.503 448.334 232.791 449.442 232.079C450.945 233.028 452.448 233.977 453.951 234.927C451.34 234.689 448.73 234.452 446.12 234.215Z" fill="#193D25"/>
<path d="M277.88 444.462C254.788 444.673 233.57 440.446 214.995 429.749C215.051 429.615 214.893 429.456 214.758 429.512C214.284 429.275 213.809 429.038 213.334 428.8C213.39 428.666 213.232 428.507 213.097 428.563C212.306 428.088 211.515 427.614 210.724 427.139C206.936 424.191 202.795 421.379 199.215 417.647C193.955 414.721 188.695 411.794 183.435 408.867C183.3 408.923 183.141 408.765 183.197 408.63C183.197 404.992 183.197 401.352 183.197 397.714C185.01 360.233 193.626 324.751 221.165 298.049C226.346 301.055 231.528 304.06 236.708 307.066C242.009 301.597 247.888 297.545 253.794 293.54C255.099 294.093 256.404 294.648 257.709 295.201C258.342 295.517 258.974 295.834 259.608 296.15C259.552 296.285 259.71 296.444 259.845 296.388C267.647 300.406 276.175 307.768 279.541 316.083C287.238 337.247 294.653 359.968 297.338 383.12C299.23 399.432 300.55 419.119 292.948 433.072C290.694 433.349 288.439 433.625 286.185 433.902C285.276 437.422 284.365 440.942 283.456 444.462C281.598 444.462 279.738 444.462 277.88 444.462Z" fill="#03696B"/>
<path d="M189.364 414.325C187.387 412.505 185.409 410.686 183.432 408.867C188.692 411.793 193.952 414.72 199.212 417.647C202.793 421.379 206.933 424.19 210.721 427.139C203.861 422.179 196.568 418.443 189.364 414.325Z" fill="#000707"/>
<path d="M221.164 298.048C224.727 294.157 228.968 291.055 233.028 288.081C234.729 286.974 236.429 285.867 238.13 284.759C244.656 288.24 251.182 291.72 257.708 295.2C256.402 294.647 255.097 294.093 253.792 293.539C247.886 297.544 242.007 301.596 236.707 307.065C231.526 304.059 226.344 301.054 221.164 298.048Z" fill="#04999C"/>
<path d="M403.645 289.505C400.679 289.505 397.713 289.505 394.747 289.505C392.334 287.409 389.922 285.312 387.509 283.217C387.668 279.064 387.825 274.911 387.984 270.758C387.649 266.919 387.943 262.232 385.611 259.368C385.096 258.656 384.583 257.944 384.068 257.232C372.128 249.147 358.936 243.894 345.982 238.249C344.321 231.169 342.66 224.089 340.999 217.01C340.524 215.428 340.049 213.847 339.575 212.264C339.512 212.055 339.248 212.169 339.1 212.146C338.784 211.908 338.467 211.671 338.151 211.434C337.598 209.773 337.043 208.112 336.49 206.451C336.176 206.504 336.176 206.16 336.49 206.213C330.71 199.725 323.745 195.954 316.32 193.162C316.003 193.003 315.686 192.846 315.37 192.687C314.381 191.659 313.393 190.63 312.404 189.602C307.381 186.834 302.359 184.066 297.336 181.297C293.082 175.321 287.826 168.249 285.708 161.482C284.878 158.831 285.861 155.148 286.183 152.584C286.657 152.821 287.132 153.058 287.606 153.296C287.725 153.77 287.844 154.245 287.962 154.719C292.471 157.171 296.98 159.624 301.488 162.076C304.257 165.556 307.025 169.036 309.794 172.517C316.353 165.148 329.732 160.487 337.32 168.008C344.146 174.774 348.452 184.168 358.915 185.331C357.451 165.833 355.988 146.335 354.525 126.837C359.033 125.176 363.542 123.515 368.051 121.854C368.802 116.04 369.553 110.226 370.305 104.412C395.009 115.983 424.688 111.731 452.766 110.345C454.515 118.891 455.507 127.734 456.563 136.566C457.591 153.652 458.62 170.737 459.648 187.823C459.489 194.071 459.332 200.321 459.173 206.569C458.276 211.987 456.608 216.989 454.427 221.875C452.766 225.276 451.105 228.678 449.444 232.079C448.336 232.791 447.23 233.503 446.122 234.214C441.765 236.871 437.158 238.825 432.596 240.978C432.754 249.995 432.912 259.012 433.07 268.03C432.286 272.525 431.375 276.547 428.087 280.013C422.143 287.054 411.379 289.174 403.645 289.505ZM336.49 206.213C336.49 206.292 336.49 206.372 336.49 206.451C336.804 206.504 336.805 206.16 336.49 206.213Z" fill="#F2BF99"/>
<path d="M323.914 203.366C322.848 199.225 319.608 196 316.32 193.162C323.746 195.955 330.711 199.725 336.491 206.214C336.806 206.16 336.805 206.504 336.491 206.451C337.044 208.112 337.598 209.773 338.152 211.434C338.073 211.434 337.993 211.434 337.915 211.434C333.247 208.745 328.581 206.055 323.914 203.366ZM336.491 206.214C336.177 206.16 336.177 206.504 336.491 206.451C336.491 206.372 336.491 206.292 336.491 206.214Z" fill="#E6863E"/>
<path d="M297.336 181.297C302.359 184.066 307.381 186.834 312.404 189.603C313.393 190.631 314.382 191.66 315.371 192.688C310.19 189.84 305.008 186.993 299.828 184.145C298.997 183.196 298.166 182.247 297.336 181.297Z" fill="#E6863E"/>
<path d="M287.605 153.295C292.154 155.827 296.701 158.357 301.25 160.889C306.518 155.721 312.53 152.202 319.997 152.346C322.092 153.137 324.189 153.928 326.285 154.719C331.904 159.04 334.102 166.168 340.523 169.432C340.839 169.59 341.156 169.748 341.472 169.906C341.416 170.042 341.575 170.2 341.709 170.144C344.49 171.59 347.489 173.06 350.489 173.584C348.987 154.047 347.483 134.509 345.981 114.972C350.489 113.389 354.998 111.808 359.507 110.226C360.259 104.333 361.009 98.4395 361.761 92.5469C374.766 97.6706 389.781 101.752 405.187 100.852C417.368 100.14 429.55 99.4285 441.731 98.7166C444.569 98.5505 446.929 99.0726 449.443 99.6658C450.551 103.225 451.657 106.785 452.765 110.344C424.687 111.731 395.008 115.982 370.304 104.412C369.552 110.226 368.801 116.039 368.05 121.853C363.541 123.514 359.032 125.175 354.523 126.837C355.987 146.335 357.45 165.832 358.914 185.331C348.451 184.168 344.145 174.774 337.319 168.008C329.731 160.486 316.352 165.148 309.793 172.517C307.024 169.036 304.256 165.556 301.487 162.075C296.979 159.624 292.47 157.171 287.961 154.719C287.843 154.245 287.724 153.77 287.605 153.295Z" fill="#E6863E"/>
<path d="M279.536 316.082C276.171 307.766 267.643 300.404 259.841 296.387C259.897 296.252 259.738 296.093 259.603 296.149C258.97 295.833 258.338 295.516 257.705 295.2C251.179 291.719 244.654 288.24 238.128 284.759C236.427 285.867 234.727 286.973 233.026 288.081C234.608 286.42 236.19 284.759 237.772 283.098C243.032 286.024 248.292 288.951 253.552 291.878C258.692 286.728 264.227 283.382 270.4 280.725C286.318 273.875 302.453 267.603 318.928 262.097C313.707 259.131 308.487 256.164 303.266 253.198C303.425 244.933 303.582 236.666 303.741 228.4C304.137 226.699 304.532 224.999 304.927 223.299C306.506 219.23 308.11 214.64 310.623 210.959C315.803 213.807 320.985 216.654 326.166 219.502C329.804 217.208 333.443 214.914 337.081 212.62C337.753 212.462 338.426 212.304 339.098 212.145C339.246 212.169 339.51 212.054 339.573 212.264C340.048 213.846 340.522 215.428 340.997 217.01C342.658 224.089 344.319 231.169 345.98 238.248C346.573 238.96 347.167 239.672 347.76 240.384C360.414 245.806 374.079 250.969 385.134 259.368C383.711 259.565 382.287 259.764 380.863 259.961C379.718 269.845 378.591 280.087 378.965 290.573C379.419 303.313 384.633 314.76 392.965 324.269C413.925 362.133 425.098 403.962 425.95 450.156C397.553 452.845 369.157 455.535 340.759 458.224C319.64 460.201 298.52 462.18 277.401 464.157C277.598 462.97 277.797 461.784 277.994 460.597C283.222 461.003 289.698 461.265 295.554 460.835C296.463 457.315 297.374 453.794 298.283 450.275C300.656 449.959 303.029 449.642 305.402 449.326C313.442 431.869 311.001 408.266 307.775 389.052C304.777 371.197 298.864 351.927 292.825 335.185C290.256 328.06 284.511 322.095 279.536 316.082Z" fill="#44AD6A"/>
<path d="M275.979 464.157C276.137 462.18 276.295 460.202 276.453 458.224C276.928 453.637 277.402 449.049 277.877 444.461C279.736 444.461 281.595 444.461 283.454 444.461C284.363 440.942 285.273 437.421 286.182 433.901C288.437 433.624 290.691 433.348 292.945 433.071C300.548 419.118 299.227 399.431 297.336 383.119C294.65 359.967 287.235 337.246 279.538 316.083C284.513 322.095 290.257 328.06 292.827 335.185C298.866 351.927 304.779 371.198 307.777 389.052C311.003 408.266 313.443 431.869 305.404 449.326C303.031 449.642 300.658 449.959 298.285 450.275C297.375 453.795 296.465 457.315 295.556 460.835C289.699 461.266 283.224 461.003 277.996 460.597C277.798 461.784 277.6 462.97 277.402 464.157C276.928 464.157 276.453 464.157 275.979 464.157Z" fill="#27633D"/>
<path d="M461.308 255.334C461.387 255.334 461.466 255.334 461.545 255.334C463.03 258.08 466.212 260.118 468.901 261.267C469.653 261.663 470.404 262.058 471.156 262.453C478.322 266.225 490.46 266.219 497.614 271.233C498.074 271.08 497.997 271.46 498.326 271.471C498.27 271.606 498.429 271.764 498.564 271.708C499.197 272.024 499.829 272.341 500.462 272.657C500.406 272.792 500.565 272.951 500.699 272.895C501.174 273.132 501.648 273.369 502.123 273.606C514.39 317.231 521.838 363.238 523.243 411.477C522.135 412.189 521.028 412.901 519.92 413.613C520.554 422.789 521.186 431.963 521.819 441.139C492.631 443.908 463.443 446.676 434.256 449.445C432.01 413.004 428.969 374.379 433.544 338.033C437.229 308.758 447.935 283.2 461.545 258.063C461.466 257.154 461.387 256.244 461.308 255.334Z" fill="#44AD6A"/>
<path d="M433.306 449.444C430.935 413.07 427.557 373.82 432.119 337.321C435.912 306.977 446.327 283.276 459.883 257.114C460.554 255.819 460.035 254.946 460.121 253.436C460.516 254.069 460.911 254.701 461.307 255.334C461.386 256.243 461.466 257.154 461.544 258.063C447.934 283.199 437.229 308.757 433.543 338.033C428.968 374.378 432.009 413.004 434.255 449.444C433.939 449.444 433.622 449.444 433.306 449.444Z" fill="#27633D"/>
<path d="M188.176 413.849C185.725 411.714 183.272 409.578 180.82 407.442C181.611 407.838 182.402 408.233 183.193 408.629C183.137 408.764 183.296 408.922 183.43 408.866C185.407 410.686 187.386 412.504 189.363 414.324C188.967 414.166 188.572 414.008 188.176 413.849Z" fill="#27633D"/>
<path d="M180.818 407.444C180.353 407.496 180.68 406.629 180.581 406.376C181.451 403.489 182.321 400.602 183.191 397.715C183.191 401.353 183.191 404.992 183.191 408.631C182.4 408.235 181.609 407.84 180.818 407.444Z" fill="#44AD6A"/>
<path d="M237.771 283.098C242.82 277.857 248.383 274.604 254.501 271.945C270.475 265.004 286.747 258.823 303.266 253.199C308.486 256.165 313.707 259.131 318.927 262.097C302.452 267.604 286.318 273.876 270.4 280.725C264.226 283.382 258.691 286.728 253.551 291.878C248.291 288.952 243.032 286.025 237.771 283.098Z" fill="#62C184"/>
<path d="M468.9 261.267C470.703 261.406 472.715 262.557 474.476 261.979C479.536 263.324 484.565 264.605 489.307 266.725C489.386 266.725 489.466 266.725 489.545 266.725C489.623 266.725 489.703 266.725 489.782 266.725C489.726 266.86 489.884 267.018 490.019 266.962C490.098 266.962 490.178 266.962 490.257 266.962C490.201 267.097 490.359 267.256 490.494 267.2C490.81 267.358 491.127 267.516 491.443 267.674C491.387 267.809 491.546 267.967 491.68 267.911C491.759 267.911 491.839 267.911 491.918 267.911C491.862 268.046 492.02 268.205 492.155 268.149C492.234 268.149 492.313 268.149 492.392 268.149C492.336 268.284 492.495 268.442 492.63 268.386C492.946 268.545 493.263 268.702 493.579 268.861C493.523 268.995 493.681 269.154 493.816 269.098C493.895 269.098 493.975 269.098 494.053 269.098C493.997 269.234 494.156 269.391 494.291 269.335C494.765 269.573 495.24 269.81 495.714 270.047C495.658 270.182 495.817 270.34 495.952 270.284C496.03 270.284 496.11 270.284 496.189 270.284C496.133 270.419 496.292 270.578 496.426 270.522C496.822 270.759 497.217 270.996 497.613 271.234C490.459 266.219 478.32 266.225 471.154 262.454C470.402 262.058 469.651 261.663 468.9 261.267Z" fill="#62C184"/>
<path d="M468.899 261.267C466.21 260.118 463.028 258.08 461.543 255.334C469.678 257.579 477.646 260.064 485.036 264.115C484.98 264.25 485.138 264.408 485.273 264.352C485.352 264.352 485.432 264.352 485.51 264.352C485.454 264.487 485.613 264.645 485.748 264.589C485.826 264.589 485.906 264.589 485.985 264.589C485.929 264.724 486.087 264.882 486.222 264.826C486.538 264.985 486.855 265.143 487.171 265.301C487.115 265.436 487.274 265.594 487.409 265.538C487.488 265.538 487.567 265.538 487.646 265.538C487.59 265.674 487.749 265.832 487.883 265.776C487.962 265.776 488.042 265.776 488.121 265.776C488.065 265.91 488.223 266.069 488.358 266.013C488.674 266.171 488.991 266.329 489.307 266.488C489.307 266.566 489.307 266.646 489.307 266.725C484.565 264.605 479.536 263.324 474.476 261.979C472.715 262.557 470.703 261.406 468.899 261.267Z" fill="#27633D"/>
<path d="M385.137 259.368C374.082 250.97 360.417 245.806 347.763 240.384C347.169 239.672 346.576 238.96 345.983 238.249C358.937 243.894 372.129 249.147 384.069 257.232C384.584 257.944 385.097 258.656 385.612 259.368C385.414 259.224 385.138 260.033 385.137 259.368Z" fill="#27633D"/>
<path d="M310.625 210.96C312.919 209.378 315.213 207.796 317.507 206.214C321.738 208.587 325.971 210.96 330.202 213.333C332.259 212.621 334.315 211.909 336.372 211.197C336.887 211.276 337.4 211.356 337.915 211.434C337.993 211.434 338.073 211.434 338.152 211.434C338.468 211.672 338.785 211.909 339.101 212.146C338.429 212.305 337.756 212.462 337.084 212.621C333.446 214.915 329.807 217.208 326.168 219.503C320.988 216.655 315.806 213.807 310.625 210.96Z" fill="#62C184"/>
<path d="M317.504 206.213C319.205 205.185 320.905 204.156 322.606 203.128C323.041 203.207 323.476 203.287 323.911 203.366C328.578 206.055 333.244 208.745 337.912 211.434C337.397 211.355 336.884 211.275 336.369 211.197C334.312 211.908 332.256 212.62 330.199 213.332C325.968 210.959 321.735 208.586 317.504 206.213Z" fill="#27633D"/>
</svg>
