<svg width="121" height="121" viewBox="0 0 121 121" fill="none" xmlns="http://www.w3.org/2000/svg">
<path d="M10.6132 73.2861C10.728 78.1124 13.1534 82.2139 16.7715 85.6029C21.6076 90.1329 27.799 92.9402 33.7245 94.8754C47.7216 99.4465 65.5154 99.6479 79.7937 95.5457C79.8029 95.5643 79.8123 95.5829 79.8216 95.6015C79.8495 95.6015 79.8775 95.6015 79.9054 95.6015C79.9054 95.5923 79.9054 95.5829 79.9054 95.5736C79.8514 95.5917 79.8604 95.5469 79.8216 95.5457C79.8137 95.4977 79.8806 95.5243 79.9054 95.5177C79.9054 95.5364 79.9054 95.5549 79.9054 95.5736C79.9282 95.5752 79.968 95.5621 79.9612 95.6015C79.9771 95.5949 79.9958 95.6136 79.9892 95.6295C79.9805 95.6982 80.0579 95.6207 79.9892 95.6295C79.9733 95.636 79.9547 95.6174 79.9612 95.6015C79.9426 95.6015 79.924 95.6015 79.9054 95.6015C79.9235 95.6555 79.8787 95.6465 79.8775 95.6853C79.8775 95.7412 79.8775 95.797 79.8775 95.8529C79.9144 95.8466 79.9144 95.8871 79.8775 95.8808C79.8841 95.8967 79.8654 95.9153 79.8495 95.9087C79.8495 95.918 79.8495 95.9274 79.8495 95.9367C79.9502 95.9352 79.8854 95.9484 79.8775 95.9925C79.8687 96.0612 79.9462 95.9838 79.8775 95.9925C79.8379 95.9992 79.8511 95.9595 79.8495 95.9367C79.8126 95.9429 79.8124 95.9025 79.8495 95.9087C79.8429 95.8929 79.8616 95.8742 79.8775 95.8808C79.8775 95.8715 79.8775 95.8622 79.8775 95.8529C79.821 95.8622 79.878 95.7878 79.8216 95.797C79.829 95.85 79.7769 95.804 79.7657 95.8389C79.7844 95.8995 79.8029 95.9599 79.8216 96.0205C79.8778 96.0326 79.8224 96.0799 79.9054 96.0903C79.8867 96.1322 79.8682 96.1741 79.8495 96.216C79.8408 96.2847 79.9182 96.2073 79.8495 96.216C79.8309 96.216 79.8123 96.216 79.7937 96.216C79.8309 96.2486 79.8682 96.2811 79.9054 96.3137C79.8588 96.3324 79.8123 96.3509 79.7657 96.3696C79.7844 96.4673 79.8029 96.5651 79.8216 96.6628C79.9111 96.6504 79.934 96.6824 79.8495 96.7187C79.8422 96.7716 79.8942 96.7256 79.9054 96.7606C79.8867 96.8397 79.8682 96.9189 79.8495 96.998C79.8865 96.9917 79.8865 97.0322 79.8495 97.0259C80.0155 97.1193 79.6811 97.1154 79.9054 97.1935C79.9531 97.2948 80.0835 97.1232 79.9054 97.1935C79.8588 97.1935 79.8123 97.1935 79.7657 97.1935C79.7657 97.2121 79.7657 97.2307 79.7657 97.2493C79.7937 97.2493 79.8216 97.2493 79.8495 97.2493C79.8433 97.2124 79.8837 97.2124 79.8775 97.2493C79.8687 97.3181 79.9462 97.2406 79.8775 97.2493C79.8682 97.2493 79.8588 97.2493 79.8495 97.2493C79.8588 97.3611 79.8682 97.4728 79.8775 97.5845C79.8775 97.5938 79.8775 97.6032 79.8775 97.6124C79.9144 97.6062 79.9146 97.6466 79.8775 97.6404C79.8759 97.6631 79.889 97.7029 79.8495 97.6962C79.9038 97.8226 79.8215 97.6999 79.9054 97.7381C79.8867 97.7893 79.8682 97.8406 79.8495 97.8917C79.9401 97.9243 79.8382 97.9641 79.7937 97.9476C79.851 98.0442 79.9762 98.1133 79.9752 98.2269C79.924 98.2036 79.8728 98.1803 79.8216 98.157C79.8309 98.1989 79.8403 98.2408 79.8495 98.2827C79.8216 98.3199 79.7937 98.3572 79.7657 98.3944C79.7657 98.4456 79.7657 98.4969 79.7657 98.5481C79.8017 98.5925 79.8458 98.5439 79.8775 98.5341C79.8775 98.5248 79.8775 98.5154 79.8775 98.5062C79.8241 98.478 79.8208 98.5598 79.7937 98.5201C79.8169 98.469 79.8403 98.4177 79.8635 98.3665C79.8886 98.3766 79.8746 98.403 79.8775 98.4224C79.8687 98.4911 79.9462 98.4137 79.8775 98.4224C79.8059 98.4318 79.8767 98.4797 79.8775 98.5062C79.9533 98.5277 80.0365 98.4134 79.9612 98.562C79.9982 98.5558 79.9983 98.5962 79.9612 98.5899C79.9705 98.6318 79.9799 98.6737 79.9892 98.7156C79.971 98.7252 79.9575 98.7648 79.9333 98.7575C79.9333 98.7762 79.9333 98.7947 79.9333 98.8134C79.9426 98.8413 79.952 98.8692 79.9612 98.8972C79.9982 98.8909 79.9983 98.9314 79.9612 98.9251C79.9901 99.0062 79.898 99.0624 79.9054 98.953C79.8961 98.953 79.8867 98.953 79.8775 98.953C79.8837 98.99 79.8433 98.99 79.8495 98.953C79.8309 98.9623 79.8123 98.9717 79.7937 98.981C79.6576 99.24 79.8026 99.0385 79.8495 99.0787C79.8403 99.1393 79.8309 99.1997 79.8216 99.2602C79.8409 99.2632 79.8674 99.249 79.8775 99.2742C79.8682 99.344 79.8588 99.4139 79.8495 99.4837C65.6574 103.589 47.974 103.424 34.0038 98.953C28.1137 97.0677 22.0177 94.3423 17.1625 89.9878C13.5224 86.7231 10.9911 82.7645 10.5852 78.1318C10.5945 76.5166 10.6039 74.9013 10.6132 73.2861ZM79.7937 99.2882C79.7844 99.2882 79.775 99.2882 79.7657 99.2882C79.5705 99.3831 79.9243 99.3958 79.7937 99.2882ZM79.8216 99.2602C79.8123 99.2602 79.8029 99.2602 79.7937 99.2602C79.7937 99.2695 79.7937 99.2789 79.7937 99.2882C79.8095 99.2948 79.8282 99.2761 79.8216 99.2602ZM79.7657 99.2602C79.7288 99.254 79.7287 99.2944 79.7657 99.2882C79.7657 99.2789 79.7657 99.2695 79.7657 99.2602ZM79.7657 99.2602C79.775 99.2602 79.7844 99.2602 79.7937 99.2602C79.8073 99.1498 79.7521 99.1498 79.7657 99.2602ZM79.7937 98.981C79.6015 98.9989 79.7833 98.9016 79.7937 98.981ZM79.9333 98.9251C79.924 98.9251 79.9147 98.9251 79.9054 98.9251C79.9054 98.9344 79.9054 98.9438 79.9054 98.953C79.9213 98.9596 79.9399 98.941 79.9333 98.9251ZM79.9054 98.9251C79.9121 98.8855 79.8723 98.8987 79.8495 98.8972C79.8495 98.9158 79.8495 98.9344 79.8495 98.953C79.8588 98.953 79.8682 98.953 79.8775 98.953C79.8709 98.9372 79.8895 98.9185 79.9054 98.9251ZM79.9612 98.8972C79.9454 98.8906 79.9267 98.9092 79.9333 98.9251C79.9426 98.9251 79.952 98.9251 79.9612 98.9251C79.9612 98.9158 79.9612 98.9064 79.9612 98.8972ZM79.9054 98.8413C79.8457 98.8416 79.7186 98.8285 79.8495 98.8972C79.8403 98.8408 79.9147 98.8977 79.9054 98.8413ZM79.9333 98.8134C79.924 98.8134 79.9147 98.8134 79.9054 98.8134C79.9054 98.8227 79.9054 98.832 79.9054 98.8413C79.9213 98.8479 79.9399 98.8292 79.9333 98.8134ZM79.9333 98.7575C79.964 98.679 79.8596 98.6158 79.9612 98.5899C79.9612 98.5807 79.9612 98.5713 79.9612 98.562C79.9225 98.5608 79.9314 98.516 79.8775 98.5341C79.8495 98.5807 79.8216 98.6271 79.7937 98.6737C79.8309 98.7203 79.8682 98.7668 79.9054 98.8134C79.907 98.7906 79.8938 98.7508 79.9333 98.7575ZM79.7937 98.6737C79.7844 98.6737 79.775 98.6737 79.7657 98.6737C79.7595 98.7107 79.7999 98.7107 79.7937 98.6737ZM79.7657 98.6737C79.6644 98.626 79.836 98.4957 79.7657 98.6737ZM79.7657 98.3944C79.697 98.3857 79.7745 98.4631 79.7657 98.3944ZM79.8216 98.2548C79.815 98.2707 79.8337 98.2893 79.8495 98.2827C79.8561 98.2669 79.8375 98.2482 79.8216 98.2548ZM79.8216 98.2548C79.7529 98.2635 79.8303 98.1861 79.8216 98.2548ZM79.8216 97.8917C79.8328 97.8441 79.8071 97.8375 79.7797 97.8079C79.7844 97.8545 79.789 97.901 79.7937 97.9476C79.7952 97.9248 79.7822 97.885 79.8216 97.8917ZM79.8495 97.8917C79.8403 97.8917 79.8309 97.8917 79.8216 97.8917C79.8152 97.9287 79.8559 97.9288 79.8495 97.8917ZM79.7937 97.7521C79.785 97.8208 79.8624 97.7434 79.7937 97.7521ZM79.7937 97.6962C79.7531 97.6854 79.7531 97.7629 79.7937 97.7521C79.7937 97.7334 79.7937 97.7149 79.7937 97.6962ZM79.8495 97.6404C79.8151 97.6371 79.7819 97.593 79.7937 97.5566C79.7937 97.6032 79.7937 97.6496 79.7937 97.6962C79.8123 97.6962 79.8309 97.6962 79.8495 97.6962C79.8495 97.6776 79.8495 97.659 79.8495 97.6404ZM79.8775 97.6124C79.8616 97.6058 79.8429 97.6245 79.8495 97.6404C79.8588 97.6404 79.8682 97.6404 79.8775 97.6404C79.8775 97.6311 79.8775 97.6217 79.8775 97.6124ZM79.8216 97.5566C79.8149 97.5961 79.8547 97.5829 79.8775 97.5845C79.8842 97.5451 79.8444 97.5581 79.8216 97.5566ZM79.7937 97.5286C79.7937 97.5379 79.7937 97.5473 79.7937 97.5566C79.8029 97.5566 79.8123 97.5566 79.8216 97.5566C79.8282 97.5407 79.8095 97.522 79.7937 97.5286ZM79.7937 97.5007C79.7567 97.4945 79.7567 97.5349 79.7937 97.5286C79.7937 97.5194 79.7937 97.51 79.7937 97.5007ZM79.7937 97.4449C79.7937 97.4635 79.7937 97.4821 79.7937 97.5007C79.8342 97.5115 79.8342 97.434 79.7937 97.4449ZM79.7937 97.4169C79.7567 97.4107 79.7567 97.4511 79.7937 97.4449C79.7937 97.4356 79.7937 97.4262 79.7937 97.4169ZM79.7937 97.3611C79.7937 97.3797 79.7937 97.3983 79.7937 97.4169C79.8342 97.4278 79.8342 97.3502 79.7937 97.3611ZM79.7657 97.2773C79.7723 97.3021 79.7457 97.369 79.7937 97.3611C79.7635 97.3033 79.8915 97.2749 79.7657 97.2773ZM79.7657 97.2493C79.7288 97.2431 79.7287 97.2835 79.7657 97.2773C79.7657 97.268 79.7657 97.2586 79.7657 97.2493ZM79.7657 97.1935C79.6879 97.1891 79.7803 97.0689 79.7657 97.1935ZM79.7657 96.998C79.6879 97.0023 79.7803 97.1225 79.7657 96.998ZM79.8495 96.998C79.8403 96.998 79.8309 96.998 79.8216 96.998C79.815 97.0138 79.8337 97.0325 79.8495 97.0259C79.8495 97.0166 79.8495 97.0073 79.8495 96.998ZM79.7657 96.998C79.7844 96.998 79.8029 96.998 79.8216 96.998C79.7918 96.9191 79.9024 96.841 79.7797 96.8304C79.775 96.8863 79.7704 96.9421 79.7657 96.998ZM79.7937 96.7466C79.776 96.859 79.919 96.7877 79.7937 96.7466ZM79.7937 96.7187C79.7566 96.7124 79.7567 96.7529 79.7937 96.7466C79.7937 96.7374 79.7937 96.728 79.7937 96.7187ZM79.8216 96.6628C79.7822 96.6561 79.7952 96.6959 79.7937 96.7187C79.8123 96.7187 79.8309 96.7187 79.8495 96.7187C79.8403 96.7 79.8309 96.6815 79.8216 96.6628ZM79.7937 96.216C79.725 96.2247 79.8024 96.1473 79.7937 96.216ZM79.8216 96.0205C79.7529 96.0118 79.8303 96.0892 79.8216 96.0205ZM79.8495 95.7412C79.8309 95.7412 79.8123 95.7412 79.7937 95.7412C79.7952 95.764 79.7822 95.8037 79.8216 95.797C79.8309 95.7784 79.8403 95.7598 79.8495 95.7412ZM79.8775 95.6853C79.8682 95.6853 79.8588 95.6853 79.8495 95.6853C79.8495 95.704 79.8495 95.7225 79.8495 95.7412C79.889 95.7479 79.8759 95.7081 79.8775 95.6853ZM79.8495 95.6853C79.848 95.6625 79.861 95.6228 79.8216 95.6295C79.8279 95.6665 79.7874 95.6664 79.7937 95.6295C79.7937 95.6667 79.7937 95.704 79.7937 95.7412C79.7889 95.7234 79.8318 95.6805 79.8495 95.6853ZM79.8216 95.6015C79.8057 95.5949 79.7871 95.6136 79.7937 95.6295C79.8029 95.6295 79.8123 95.6295 79.8216 95.6295C79.8216 95.6202 79.8216 95.6108 79.8216 95.6015Z" fill="#6BE1D3"/>
<path d="M79.8215 99.2601C79.8281 99.276 79.8095 99.2946 79.7936 99.288C79.9242 99.3956 79.5704 99.383 79.7657 99.288C79.7286 99.2943 79.7287 99.2538 79.7657 99.2601C79.7521 99.1496 79.8072 99.1496 79.7936 99.2601C79.8029 99.2601 79.8123 99.2601 79.8215 99.2601C79.8308 99.1995 79.8402 99.1391 79.8495 99.0785C79.8025 99.0383 79.6575 99.2399 79.7936 98.9808C79.6015 98.9988 79.7832 98.9015 79.7936 98.9808C79.8123 98.9715 79.8308 98.9621 79.8495 98.9529C79.8495 98.9342 79.8495 98.9157 79.8495 98.897C79.7185 98.8283 79.8457 98.8415 79.9053 98.8412C79.9053 98.8319 79.9053 98.8225 79.9053 98.8132C79.8681 98.7666 79.8308 98.7202 79.7936 98.6736C79.7999 98.7106 79.7594 98.7106 79.7657 98.6736C79.6644 98.6259 79.836 98.4955 79.7657 98.6736C79.775 98.6736 79.7843 98.6736 79.7936 98.6736C79.8215 98.627 79.8495 98.5805 79.8774 98.5339C79.8458 98.5438 79.8017 98.5924 79.7657 98.5479C79.7657 98.4967 79.7657 98.4454 79.7657 98.3943C79.697 98.3856 79.7744 98.463 79.7657 98.3943C79.7936 98.3571 79.8215 98.3198 79.8495 98.2826C79.8336 98.2892 79.8149 98.2705 79.8215 98.2546C79.7528 98.2634 79.8303 98.1859 79.8215 98.2546C79.8374 98.248 79.8561 98.2667 79.8495 98.2826C79.8402 98.2407 79.8308 98.1988 79.8215 98.1569C79.8727 98.1801 79.924 98.2035 79.9751 98.2267C79.9762 98.1131 79.8509 98.0441 79.7936 97.9474C79.7889 97.9008 79.7843 97.8544 79.7796 97.8078C79.807 97.8374 79.8327 97.844 79.8215 97.8916C79.8308 97.8916 79.8402 97.8916 79.8495 97.8916C79.8681 97.8404 79.8867 97.7891 79.9053 97.7379C79.8214 97.6997 79.9038 97.8224 79.8495 97.6961C79.8308 97.6961 79.8123 97.6961 79.7936 97.6961C79.7936 97.7147 79.7936 97.7333 79.7936 97.7519C79.7849 97.8206 79.8623 97.7432 79.7936 97.7519C79.7531 97.7627 79.7531 97.6852 79.7936 97.6961C79.7936 97.6495 79.7936 97.603 79.7936 97.5564C79.7936 97.5471 79.7936 97.5378 79.7936 97.5285C79.7566 97.5347 79.7566 97.4943 79.7936 97.5006C79.7936 97.4819 79.7936 97.4633 79.7936 97.4447C79.7566 97.4509 79.7566 97.4105 79.7936 97.4168C79.7936 97.3981 79.7936 97.3796 79.7936 97.3609C79.7457 97.3688 79.7723 97.3019 79.7657 97.2771C79.7286 97.2834 79.7287 97.2429 79.7657 97.2492C79.7657 97.2305 79.7657 97.212 79.7657 97.1933C79.6878 97.189 79.7802 97.0688 79.7657 97.1933C79.8123 97.1933 79.8587 97.1933 79.9053 97.1933C79.681 97.1152 80.0155 97.1192 79.8495 97.0258C79.8336 97.0323 79.8149 97.0137 79.8215 96.9978C79.8029 96.9978 79.7843 96.9978 79.7657 96.9978C79.6878 97.0022 79.7802 97.1224 79.7657 96.9978C79.7704 96.942 79.775 96.8861 79.7796 96.8303C79.9023 96.8409 79.7917 96.919 79.8215 96.9978C79.8308 96.9978 79.8402 96.9978 79.8495 96.9978C79.8681 96.9187 79.8867 96.8395 79.9053 96.7604C79.8942 96.7255 79.8421 96.7715 79.8495 96.7185C79.8308 96.7185 79.8123 96.7185 79.7936 96.7185C79.7936 96.7278 79.7936 96.7372 79.7936 96.7465C79.776 96.8589 79.919 96.7876 79.7936 96.7465C79.7566 96.7527 79.7565 96.7123 79.7936 96.7185C79.7952 96.6957 79.7821 96.656 79.8215 96.6627C79.8029 96.5649 79.7843 96.4672 79.7657 96.3694C79.8123 96.3508 79.8587 96.3322 79.9053 96.3136C79.8681 96.2809 79.8308 96.2484 79.7936 96.2158C79.7249 96.2245 79.8023 96.1471 79.7936 96.2158C79.8123 96.2158 79.8308 96.2158 79.8495 96.2158C79.8681 96.1739 79.8867 96.132 79.9053 96.0901C79.8223 96.0797 79.8777 96.0325 79.8215 96.0203C79.7528 96.0116 79.8303 96.089 79.8215 96.0203C79.8029 95.9598 79.7843 95.8993 79.7657 95.8388C79.7769 95.8038 79.8289 95.8498 79.8215 95.7969C79.7821 95.8036 79.7952 95.7638 79.7936 95.741C79.7936 95.7038 79.7936 95.6665 79.7936 95.6293C79.787 95.6134 79.8057 95.5948 79.8215 95.6014C79.8123 95.5827 79.8029 95.5642 79.7936 95.5455C79.8029 95.5455 79.8123 95.5455 79.8215 95.5455C79.8603 95.5467 79.8514 95.5915 79.9053 95.5734C79.9053 95.5548 79.9053 95.5362 79.9053 95.5176C85.8694 93.6966 91.7557 91.2849 96.7047 87.0271C100.423 83.8287 103.04 79.8059 103.422 75.1572C103.417 77.9079 103.45 80.5896 102.528 82.9634C101.645 85.2372 100.269 87.3915 98.4503 89.2754C93.2154 94.6988 86.4854 97.4118 79.8495 99.4835C79.8587 99.4137 79.8681 99.3439 79.8774 99.2741C79.8673 99.2488 79.8409 99.263 79.8215 99.2601ZM79.7936 99.2601C79.7843 99.2601 79.775 99.2601 79.7657 99.2601C79.7657 99.2694 79.7657 99.2787 79.7657 99.288C79.775 99.288 79.7843 99.288 79.7936 99.288C79.7936 99.2787 79.7936 99.2694 79.7936 99.2601ZM79.9612 98.9249C79.9519 98.9249 79.9425 98.9249 79.9333 98.9249C79.9398 98.9408 79.9212 98.9595 79.9053 98.9529C79.898 99.0622 79.99 99.006 79.9612 98.9249ZM79.8774 98.9529C79.8681 98.9529 79.8587 98.9529 79.8495 98.9529C79.8432 98.9898 79.8837 98.9898 79.8774 98.9529ZM79.9053 98.9249C79.8895 98.9183 79.8708 98.937 79.8774 98.9529C79.8867 98.9529 79.8961 98.9529 79.9053 98.9529C79.9053 98.9436 79.9053 98.9342 79.9053 98.9249ZM79.9612 98.897C79.9612 98.9063 79.9612 98.9157 79.9612 98.9249C79.9983 98.9312 79.9982 98.8908 79.9612 98.897ZM79.9612 98.897C79.9519 98.8691 79.9425 98.8412 79.9333 98.8132C79.9398 98.8291 79.9212 98.8477 79.9053 98.8412C79.9146 98.8976 79.8402 98.8406 79.8495 98.897C79.8723 98.8986 79.912 98.8854 79.9053 98.9249C79.9146 98.9249 79.924 98.9249 79.9333 98.9249C79.9267 98.9091 79.9453 98.8904 79.9612 98.897ZM79.9333 98.7574C79.8937 98.7507 79.9069 98.7904 79.9053 98.8132C79.9146 98.8132 79.924 98.8132 79.9333 98.8132C79.9333 98.7946 79.9333 98.776 79.9333 98.7574ZM79.9612 98.5898C79.8595 98.6156 79.964 98.6788 79.9333 98.7574C79.9574 98.7646 79.9709 98.7251 79.9891 98.7155C79.9798 98.6736 79.9705 98.6317 79.9612 98.5898ZM79.9612 98.5619C79.9612 98.5711 79.9612 98.5805 79.9612 98.5898C79.9983 98.596 79.9982 98.5556 79.9612 98.5619ZM79.8774 98.506C79.8774 98.5153 79.8774 98.5247 79.8774 98.5339C79.9314 98.5158 79.9224 98.5606 79.9612 98.5619C80.0365 98.4133 79.9533 98.5276 79.8774 98.506ZM79.8774 98.506C79.8766 98.4795 79.8058 98.4316 79.8774 98.4222C79.8745 98.4029 79.8886 98.3764 79.8634 98.3664C79.8402 98.4175 79.8168 98.4688 79.7936 98.52C79.8208 98.5596 79.824 98.4778 79.8774 98.506ZM79.8774 98.4222C79.8687 98.4909 79.9461 98.4135 79.8774 98.4222ZM79.8495 97.8916C79.8558 97.9286 79.8152 97.9285 79.8215 97.8916C79.7821 97.8849 79.7952 97.9246 79.7936 97.9474C79.8382 97.964 79.9401 97.9242 79.8495 97.8916ZM79.8774 97.6402C79.8681 97.6402 79.8587 97.6402 79.8495 97.6402C79.8495 97.6589 79.8495 97.6774 79.8495 97.6961C79.8889 97.7028 79.8758 97.663 79.8774 97.6402ZM79.8774 97.6123C79.8774 97.6215 79.8774 97.6309 79.8774 97.6402C79.9145 97.6465 79.9144 97.606 79.8774 97.6123ZM79.8774 97.6123C79.8774 97.603 79.8774 97.5936 79.8774 97.5843C79.8546 97.5828 79.8148 97.596 79.8215 97.5564C79.8123 97.5564 79.8029 97.5564 79.7936 97.5564C79.7819 97.5928 79.8151 97.637 79.8495 97.6402C79.8429 97.6243 79.8615 97.6057 79.8774 97.6123ZM79.8495 97.2492C79.8215 97.2492 79.7936 97.2492 79.7657 97.2492C79.7657 97.2585 79.7657 97.2678 79.7657 97.2771C79.8915 97.2748 79.7634 97.3031 79.7936 97.3609C79.8342 97.3501 79.8342 97.4276 79.7936 97.4168C79.7936 97.426 79.7936 97.4354 79.7936 97.4447C79.8342 97.4339 79.8342 97.5114 79.7936 97.5006C79.7936 97.5098 79.7936 97.5192 79.7936 97.5285C79.8095 97.5219 79.8281 97.5405 79.8215 97.5564C79.8443 97.558 79.8841 97.5449 79.8774 97.5843C79.8681 97.4726 79.8587 97.3609 79.8495 97.2492ZM79.8774 97.2492C79.8687 97.3179 79.9461 97.2405 79.8774 97.2492ZM79.8495 97.2492C79.8587 97.2492 79.8681 97.2492 79.8774 97.2492C79.8837 97.2122 79.8432 97.2122 79.8495 97.2492ZM79.9053 97.1933C79.953 97.2947 80.0834 97.1231 79.9053 97.1933ZM79.8495 96.9978C79.8495 97.0071 79.8495 97.0165 79.8495 97.0258C79.8864 97.032 79.8864 96.9916 79.8495 96.9978ZM79.8215 96.6627C79.8308 96.6813 79.8402 96.6999 79.8495 96.7185C79.9339 96.6822 79.911 96.6503 79.8215 96.6627ZM79.8495 96.2158C79.8408 96.2845 79.9182 96.2071 79.8495 96.2158ZM79.8774 95.9924C79.8687 96.0611 79.9461 95.9837 79.8774 95.9924ZM79.8495 95.9365C79.851 95.9593 79.8378 95.9991 79.8774 95.9924C79.8853 95.9482 79.9501 95.9351 79.8495 95.9365ZM79.8495 95.9086C79.8124 95.9023 79.8125 95.9428 79.8495 95.9365C79.8495 95.9272 79.8495 95.9179 79.8495 95.9086ZM79.8774 95.8807C79.8615 95.8741 79.8429 95.8927 79.8495 95.9086C79.8653 95.9152 79.884 95.8965 79.8774 95.8807ZM79.8774 95.8527C79.8774 95.862 79.8774 95.8714 79.8774 95.8807C79.9144 95.8869 79.9144 95.8465 79.8774 95.8527ZM79.8774 95.6852C79.8758 95.7079 79.8889 95.7477 79.8495 95.741C79.8402 95.7597 79.8308 95.7782 79.8215 95.7969C79.878 95.7876 79.821 95.862 79.8774 95.8527C79.8774 95.7969 79.8774 95.741 79.8774 95.6852ZM79.8495 95.6852C79.8317 95.6804 79.7888 95.7233 79.7936 95.741C79.8123 95.741 79.8308 95.741 79.8495 95.741C79.8495 95.7224 79.8495 95.7038 79.8495 95.6852ZM79.9053 95.6014C79.8774 95.6014 79.8495 95.6014 79.8215 95.6014C79.8215 95.6106 79.8215 95.62 79.8215 95.6293C79.861 95.6226 79.8479 95.6624 79.8495 95.6852C79.8587 95.6852 79.8681 95.6852 79.8774 95.6852C79.8786 95.6464 79.9234 95.6553 79.9053 95.6014ZM79.9891 95.6293C79.9804 95.698 80.0578 95.6206 79.9891 95.6293ZM79.8215 95.6293C79.8123 95.6293 79.8029 95.6293 79.7936 95.6293C79.7874 95.6663 79.8278 95.6664 79.8215 95.6293ZM79.9612 95.6014C79.9546 95.6172 79.9733 95.6359 79.9891 95.6293C79.9957 95.6134 79.977 95.5948 79.9612 95.6014ZM79.9053 95.5734C79.9053 95.5827 79.9053 95.5921 79.9053 95.6014C79.924 95.6014 79.9425 95.6014 79.9612 95.6014C79.9679 95.5619 79.9281 95.575 79.9053 95.5734Z" fill="#27BFAD"/>
<path d="M10.613 73.2863C10.5998 66.7286 15.5028 61.2651 20.9049 57.8135C28.5083 52.9554 37.3269 50.6865 46.474 49.5465C46.4275 49.7467 46.381 49.9468 46.3344 50.147C46.3157 51.1198 46.2972 52.0927 46.2785 53.0656C44.3343 53.7275 42.4192 54.455 40.5391 55.272C39.8191 55.5849 39.1643 55.9677 38.5701 56.5846C38.3839 56.7801 38.1977 56.9756 38.0115 57.1711C37.5336 57.5211 37.0344 57.8862 36.615 58.3442C33.3738 61.4869 32.3598 65.6631 32.1464 70.0744C32.0439 70.4143 31.9416 70.754 31.8392 71.0938C31.8509 71.1235 31.8123 71.2256 31.8671 71.2195C32.1557 71.4709 32.4443 71.7222 32.7329 71.9736C32.7142 72.0387 32.6957 72.104 32.677 72.1691C32.3465 73.9988 32.145 75.8827 31.9509 77.7689C32.4862 78.0714 33.0215 78.3741 33.5568 78.6766C33.7234 78.7251 33.8187 78.8344 34.0316 78.7883C37.0107 78.509 39.9898 78.2297 42.9689 77.9504C42.9888 77.8936 43.0686 77.9541 43.0667 77.8946C43.1225 77.8946 43.1784 77.8946 43.2343 77.8946C45.72 77.6619 48.2056 77.4291 50.6913 77.1963C47.0308 78.5629 43.5037 80.3298 40.0364 82.1957C39.9945 82.2283 39.9526 82.2608 39.9107 82.2934C40.0411 82.4238 40.1713 82.5541 40.3017 82.6844C39.2605 83.393 38.138 84.0771 37.0898 84.835C38.4816 86.2361 39.8735 87.6372 41.2652 89.0383C41.3583 89.0383 41.4515 89.0383 41.5445 89.0383C44.4399 88.7683 47.3351 88.4984 50.2305 88.2284C50.4743 88.2198 50.6299 88.1025 50.845 88.0329C51.3384 87.9863 51.8317 87.9398 52.3252 87.8932C57.5107 87.4091 62.6962 86.925 67.8817 86.4409C68.4166 86.559 68.9026 86.5144 69.3899 86.3012C72.6763 85.994 75.9625 85.6868 79.2489 85.3796C79.3048 85.3796 79.3606 85.3796 79.4165 85.3796C79.4537 85.4168 79.491 85.4541 79.5282 85.4913C81.2039 85.333 82.8797 85.1748 84.5554 85.0165C84.6206 85.0072 84.6858 84.9979 84.7509 84.9886C84.8719 84.8117 84.993 84.6348 85.114 84.4579C85.9519 84.2438 86.7898 84.0297 87.6276 83.8156C88.19 83.5015 88.682 82.987 88.9264 82.4051C89.0753 81.8465 89.2243 81.288 89.3732 80.7294C89.463 80.3926 89.3225 80.0606 89.1219 79.8077C87.7347 78.4113 86.3476 77.0148 84.9604 75.6183C86.5295 74.4211 88.1842 72.9516 89.471 71.3871C91.2277 71.5076 92.9875 71.0374 94.4424 70.1023C95.0428 69.5484 95.6433 68.9944 96.2438 68.4406C94.852 67.0394 93.4601 65.6384 92.0684 64.2372C91.6587 64.1906 91.2492 64.1442 90.8395 64.0976C90.6253 63.9021 90.4113 63.7066 90.1971 63.5111C89.9644 63.4273 89.7316 63.3435 89.4989 63.2597C86.436 63.5576 83.3731 63.8555 80.3102 64.1534C79.0273 64.3502 77.6892 64.4787 76.4699 64.7958C75.9486 63.4505 75.4273 62.1053 74.9059 60.76C74.0957 58.6695 72.093 56.5313 70.0742 55.4395C70.0808 55.4237 70.0621 55.405 70.0462 55.4116C69.9717 55.3744 69.8973 55.3371 69.8228 55.2999C69.8294 55.284 69.8109 55.2654 69.7949 55.272C69.7204 55.2348 69.646 55.1974 69.5714 55.1602C69.578 55.1443 69.5594 55.1257 69.5435 55.1323C69.469 55.0951 69.3946 55.0578 69.3201 55.0206C69.3267 55.0047 69.308 54.9861 69.2922 54.9927C69.2176 54.9555 69.1432 54.9182 69.0687 54.8809C69.0753 54.8651 69.0567 54.8464 69.0408 54.853C68.9663 54.8158 68.8919 54.7785 68.8174 54.7413C68.824 54.7254 68.8053 54.7068 68.7894 54.7134C68.7708 54.7041 68.7522 54.6947 68.7336 54.6854C68.6777 54.6575 68.6219 54.6296 68.566 54.6017C68.5726 54.5858 68.5539 54.5671 68.5381 54.5737C68.4636 54.5365 68.3892 54.4992 68.3146 54.462C68.3212 54.4461 68.3026 54.4275 68.2867 54.4341C68.2401 54.4201 68.1936 54.4062 68.1471 54.3922C68.175 54.4807 68.2029 54.569 68.2308 54.6575C68.2216 54.6575 68.2122 54.6575 68.2029 54.6575C68.2095 54.6417 68.1909 54.623 68.175 54.6296C68.1378 54.6109 68.1005 54.5924 68.0633 54.5737C68.0699 54.5579 68.0512 54.5392 68.0353 54.5458C68.0261 54.5458 68.0167 54.5458 68.0074 54.5458C68.014 54.5298 67.9954 54.5113 67.9795 54.5179C67.9702 54.5179 67.9608 54.5179 67.9516 54.5179C67.9581 54.502 67.9395 54.4834 67.9236 54.4899C67.8864 54.4713 67.8491 54.4527 67.8119 54.4341C67.8185 54.4182 67.7998 54.3996 67.784 54.4062C67.7747 54.4062 67.7653 54.4062 67.7561 54.4062C67.7626 54.3903 67.744 54.3716 67.7281 54.3782C67.7189 54.3782 67.7095 54.3782 67.7002 54.3782C67.7068 54.3624 67.6881 54.3437 67.6723 54.3503C66.8026 53.8736 65.8647 53.5811 64.9073 53.3169C64.898 53.3169 64.8886 53.3169 64.8794 53.3169C64.8328 53.2424 64.7863 53.168 64.7397 53.0935C64.663 52.334 64.52 51.6361 64.1811 50.9848C64.1253 50.9616 64.0694 50.9382 64.0135 50.915C63.8367 50.8033 63.6597 50.6916 63.4829 50.5799C63.6784 50.1796 63.8739 49.7792 64.0694 49.3789C74.3156 50.4639 84.2031 52.8831 92.6549 58.2883C98.4722 62.0087 103.866 67.9649 103.422 75.1575C103.04 79.8062 100.422 83.829 96.7046 87.0274C91.7556 91.2852 85.8693 93.6969 79.9052 95.5179C79.8804 95.5245 79.8135 95.4979 79.8214 95.5458C79.8122 95.5458 79.8028 95.5458 79.7935 95.5458C65.5152 99.648 47.7215 99.4466 33.7244 94.8755C27.7988 92.9403 21.6075 90.133 16.7714 85.603C13.1532 82.214 10.7278 78.1125 10.613 73.2863Z" fill="#95EAE0"/>
<path d="M50.6915 77.1959C54.0337 76.8794 57.3758 76.5628 60.7181 76.2463C61.0066 76.2184 61.2953 76.1905 61.5839 76.1625C61.6211 76.1625 61.6584 76.1625 61.6956 76.1625C65.1309 75.8367 68.5661 75.5109 72.0014 75.185C73.7377 75.0361 75.4739 74.8871 77.2102 74.7382C77.2301 74.6973 77.26 74.7248 77.28 74.6963C77.1591 74.1982 77.038 73.7001 76.917 73.2021C76.6935 72.2897 76.4701 71.3774 76.2467 70.465C76.5911 70.181 76.9356 69.8971 77.28 69.6132C77.6334 67.9261 76.9463 66.2898 76.4701 64.7954C77.6894 64.4783 79.0274 64.3497 80.3104 64.153C83.3733 63.8551 86.4361 63.5572 89.4991 63.2593C89.7318 63.3431 89.9646 63.4269 90.1973 63.5106C90.4114 63.7061 90.6255 63.9016 90.8397 64.0972C91.2493 64.1437 91.6589 64.1902 92.0685 64.2368C93.4603 65.6379 94.8522 67.039 96.2439 68.4401C95.6435 68.994 95.043 69.548 94.4425 70.1019C92.9876 71.037 91.2279 71.5072 89.4711 71.3867C88.1844 72.9511 86.5296 74.4207 84.9606 75.6179C86.3477 77.0144 87.7348 78.4108 89.122 79.8073C89.3227 80.0602 89.4632 80.3921 89.3734 80.729C89.2245 81.2875 89.0754 81.8461 88.9265 82.4047C88.6822 82.9865 88.1902 83.5011 87.6278 83.8151C86.7899 84.0293 85.952 84.2433 85.1142 84.4575C84.9932 84.6344 84.8721 84.8113 84.7511 84.9882C84.686 84.9974 84.6207 85.0068 84.5556 85.0161C82.8798 85.1744 81.2041 85.3326 79.5283 85.4909C79.4911 85.4537 79.4538 85.4164 79.4166 85.3792C79.3608 85.3792 79.3049 85.3792 79.2491 85.3792C75.9627 85.6864 72.6764 85.9936 69.3901 86.3008C68.9028 86.514 68.4168 86.5586 67.8819 86.4405C62.6963 86.9245 57.5109 87.4087 52.3253 87.8928C51.8319 87.9394 51.3386 87.9859 50.8451 88.0324C50.63 88.102 50.4744 88.2193 50.2307 88.2279C47.3353 88.498 44.4401 88.7679 41.5447 89.0379C41.4516 89.0379 41.3585 89.0379 41.2654 89.0379C39.8736 87.6367 38.4818 86.2357 37.09 84.8345C38.1381 84.0767 39.2606 83.3926 40.3018 82.684C40.1715 82.5536 40.0412 82.4234 39.9108 82.293C39.9527 82.2604 39.9946 82.2279 40.0365 82.1952C43.5039 80.3294 47.031 78.5624 50.6915 77.1959Z" fill="#27BFAD"/>
<path d="M50.8031 43.2901C50.8097 43.2742 50.7911 43.2555 50.7752 43.2621C50.738 43.2435 50.7007 43.2249 50.6635 43.2063C50.4214 42.9875 50.1794 42.7687 49.9373 42.5499C49.7399 42.1029 49.4563 41.7199 48.9877 41.4747C48.7411 41.3816 48.4943 41.2884 48.2476 41.1954C47.3688 41.1784 46.6612 41.5925 46.0412 42.2008C45.5059 41.9029 44.9706 41.605 44.4353 41.3071C44.3794 41.2792 44.3236 41.2512 44.2677 41.2233C44.2305 41.1907 44.1932 41.1582 44.156 41.1256C43.2564 38.7501 41.9914 36.5076 41.4748 33.9757C41.4841 33.4543 41.4934 32.933 41.5027 32.4117C41.963 31.6521 42.2847 30.7926 42.955 30.1354C43.5555 30.4799 44.156 30.8244 44.7565 31.1688C45.4567 30.6259 46.3278 30.4962 47.1444 30.2332C46.5392 29.8841 45.9342 29.535 45.329 29.1858C45.5919 28.0771 45.9424 26.9747 46.8372 26.1416C47.4563 26.486 48.0753 26.8305 48.6945 27.1749C49.0575 26.877 49.4206 26.5792 49.7837 26.2812C50.9141 25.818 52.1376 25.4445 53.3866 25.2758C56.2844 24.8843 59.2079 24.5185 62.1424 24.3262C62.8029 24.771 63.9345 25.3852 63.9578 26.3091C63.967 26.3743 63.9764 26.4395 63.9857 26.5046C64.0043 26.9375 64.0229 27.3704 64.0415 27.8034C64.0562 27.8327 64.0994 27.8108 64.1253 27.8173C64.358 27.7941 64.5908 27.7707 64.8236 27.7475C64.777 27.7243 64.7305 27.7009 64.6839 27.6777C64.6653 27.4077 64.6467 27.1377 64.628 26.8677C65.1866 27.0912 65.7452 27.3146 66.3038 27.538C66.5186 27.5447 66.3956 27.7187 66.4714 27.8313C66.5272 29.0602 66.5831 30.289 66.6389 31.5179C66.6844 32.5185 66.358 33.749 65.6335 34.4226C65.0766 34.9403 64.2602 35.2537 63.483 34.9951C63.1871 34.9253 62.9093 34.8638 62.5753 34.8834C61.1416 34.9672 59.7078 35.051 58.2742 35.1348C56.461 35.2407 54.6938 34.7603 53.1631 34.1572C53.0747 34.8508 52.9863 35.5444 52.8978 36.238C52.3672 36.4242 51.8365 36.6103 51.3058 36.7965C51.4827 39.096 51.6596 41.3956 51.8365 43.695C51.4834 43.6334 51.1303 43.4603 50.8031 43.2901Z" fill="#0A2639"/>
<path d="M48.9876 41.4746C49.4562 41.7198 49.7398 42.1028 49.9372 42.5499C50.1793 42.7686 50.4213 42.9875 50.6634 43.2062C49.9076 42.8221 49.649 41.9831 48.9876 41.4746Z" fill="black"/>
<path d="M42.955 30.1356C43.1123 29.9121 43.3745 29.8481 43.5834 29.7167C44.1652 29.5398 44.7471 29.3629 45.3289 29.186C45.9341 29.5351 46.5392 29.8843 47.1443 30.2334C46.3277 30.4964 45.4566 30.6261 44.7564 31.169C44.1559 30.8246 43.5554 30.48 42.955 30.1356Z" fill="#114264"/>
<path d="M64.1253 27.8174C64.3115 27.7708 64.4977 27.7243 64.6839 27.6777C64.7305 27.701 64.7769 27.7243 64.8235 27.7476C64.5908 27.7708 64.358 27.7941 64.1253 27.8174Z" fill="#114264"/>
<path d="M63.9857 26.5049C64.1998 26.6259 64.4139 26.747 64.628 26.868C64.6467 27.138 64.6652 27.4079 64.6839 27.6779C64.4977 27.7245 64.3115 27.771 64.1253 27.8176C64.0994 27.8111 64.0561 27.833 64.0415 27.8036C64.0229 27.3707 64.0043 26.9378 63.9857 26.5049Z" fill="black"/>
<path d="M64.628 26.8677C64.4138 26.7467 64.1998 26.6256 63.9856 26.5046C63.9764 26.4395 63.967 26.3742 63.9577 26.3091C64.7776 26.6169 65.5527 27.096 66.3038 27.538C65.7452 27.3145 65.1866 27.0911 64.628 26.8677Z" fill="#114264"/>
<path d="M46.8372 26.1418C47.1956 25.8439 47.5541 25.5461 47.9125 25.2481C49.0347 24.7864 50.2489 24.4162 51.4874 24.2427C54.3942 23.8355 57.2935 23.5206 60.2572 23.2651C60.8856 23.6189 61.514 23.9726 62.1424 24.3264C59.2079 24.5188 56.2844 24.8846 53.3866 25.276C52.1376 25.4447 50.9141 25.8183 49.7837 26.2815C49.4206 26.5794 49.0576 26.8773 48.6945 27.1752C48.0754 26.8308 47.4563 26.4863 46.8372 26.1418Z" fill="#114264"/>
<path d="M72.0015 75.1854C71.9269 74.1054 71.8525 73.0256 71.778 71.9456C71.9269 71.8711 72.076 71.7967 72.2249 71.7222C72.2249 71.7827 72.2249 71.8432 72.2249 71.9037C72.2431 71.9133 72.2566 71.9529 72.2808 71.9456C72.8999 72.709 73.5189 73.4724 74.138 74.2358C75.2162 74.2213 76.0948 73.7918 76.917 73.2024C77.038 73.7004 77.1591 74.1986 77.2801 74.6966C77.2601 74.7251 77.2301 74.6976 77.2103 74.7385C75.474 74.8874 73.7378 75.0365 72.0015 75.1854Z" fill="#F1C099"/>
<path d="M72.2806 71.9456C72.3783 72.0014 72.4761 72.0573 72.5738 72.1132C74.0291 72.065 75.1066 71.2656 76.2465 70.4653C76.4699 71.3777 76.6934 72.29 76.9168 73.2024C76.0946 73.7918 75.216 74.2212 74.1378 74.2358C73.5187 73.4724 72.8997 72.7089 72.2806 71.9456Z" fill="#E4883F"/>
<path d="M71.778 71.9456C71.9084 71.8618 72.0386 71.7781 72.169 71.6943C72.1918 71.6958 72.2316 71.6826 72.2249 71.7222C72.076 71.7967 71.9269 71.8711 71.778 71.9456Z" fill="#F7DBC5"/>
<path d="M56.5286 57.0315C56.6729 57.1525 56.8172 57.2736 56.9615 57.3946C57.3385 57.3759 57.7156 57.3574 58.0926 57.3387C59.0029 57.2998 60.2698 57.0503 60.9693 56.2216C61.0903 56.2076 61.2114 56.1937 61.3324 56.1797C61.3694 59.0866 61.1034 61.8686 60.313 64.4328C59.7298 64.0226 59.1869 63.429 58.7071 62.8827C58.074 61.9703 57.441 61.058 56.8079 60.1456C56.3177 59.215 56.0955 58.213 56.1097 57.0734C56.2493 57.0595 56.3889 57.0455 56.5286 57.0315Z" fill="#04686B"/>
<path d="M56.5285 57.0315C56.3796 56.8966 56.2306 56.7615 56.0817 56.6265C56.1375 56.1285 56.1934 55.6304 56.2493 55.1323C56.2306 55.6211 56.212 56.1098 56.1934 56.5986C56.4774 56.8453 56.7612 57.0921 57.0452 57.3387C57.3943 57.3387 57.7435 57.3387 58.0926 57.3387C57.7155 57.3574 57.3385 57.3759 56.9614 57.3946C56.8171 57.2736 56.6729 57.1525 56.5285 57.0315Z" fill="#F2BF98"/>
<path d="M32.6771 72.1689C33.2868 72.5041 33.8967 72.8392 34.5065 73.1744C36.5383 75.9401 39.847 76.9787 43.1226 77.1962C43.1039 77.4289 43.0854 77.6617 43.0667 77.8944C43.0686 77.954 42.9889 77.8934 42.969 77.9503C39.9898 78.2296 37.0108 78.5089 34.0317 78.7882C33.8187 78.8343 33.7234 78.7249 33.5569 78.6764C33.0215 78.3739 32.4863 78.0713 31.9509 77.7687C32.1451 75.8825 32.3465 73.9986 32.6771 72.1689Z" fill="#F3C09A"/>
<path d="M32.677 72.1691C32.6957 72.104 32.7142 72.0388 32.7329 71.9736C32.7795 71.9923 32.8259 72.0108 32.8725 72.0295C33.7203 72.5142 34.5788 72.9539 35.3861 73.5377C35.4792 73.5935 35.5724 73.6494 35.6654 73.7052C35.6588 73.7211 35.6775 73.7398 35.6934 73.7332C35.7492 73.7611 35.8051 73.789 35.8609 73.817C35.8543 73.8328 35.873 73.8515 35.8889 73.8449C38.075 75.1038 40.5722 75.6013 43.2901 75.5765C43.2342 76.1164 43.1784 76.6565 43.1225 77.1964C39.8469 76.9789 36.5382 75.9402 34.5064 73.1746C33.8966 72.8394 33.2868 72.5043 32.677 72.1691Z" fill="#E8873E"/>
<path d="M72.2806 71.9453C72.2565 71.9525 72.2429 71.913 72.2247 71.9034C72.2247 71.8428 72.2247 71.7824 72.2247 71.7218C72.2314 71.6823 72.1917 71.6955 72.1689 71.6939C72.0035 66.0164 71.127 60.6015 69.6832 55.4671C69.3992 55.2995 69.1153 55.1319 68.8313 54.9644C68.8081 54.9411 68.7848 54.9178 68.7615 54.8945C68.7522 54.8247 68.7429 54.7549 68.7336 54.6851C68.7522 54.6943 68.7708 54.7037 68.7895 54.713C68.7829 54.729 68.8015 54.7475 68.8174 54.7409C68.8919 54.7781 68.9663 54.8154 69.0408 54.8526C69.0342 54.8685 69.0529 54.8872 69.0687 54.8806C69.1433 54.9178 69.2177 54.9551 69.2922 54.9923C69.2856 55.0081 69.3042 55.0268 69.3201 55.0202C69.3946 55.0574 69.469 55.0947 69.5435 55.1319C69.5369 55.1478 69.5556 55.1664 69.5715 55.1599C69.646 55.1971 69.7204 55.2344 69.7949 55.2716C69.7883 55.2874 69.807 55.3061 69.8228 55.2995C69.8973 55.3367 69.9717 55.374 70.0463 55.4112C70.0397 55.4271 70.0583 55.4457 70.0742 55.4391C72.093 56.531 74.0958 58.6691 74.9059 60.7597C75.4273 62.1049 75.9486 63.4501 76.47 64.7954C76.9462 66.2898 77.6333 67.9262 77.2799 69.6132C76.9355 69.8972 76.591 70.181 76.2465 70.465C75.1067 71.2653 74.0292 72.0647 72.5739 72.1129C72.4761 72.057 72.3783 72.0011 72.2806 71.9453Z" fill="#06686B"/>
<path d="M69.5156 55.3836C69.5222 55.3677 69.5035 55.3491 69.4876 55.3556C69.4131 55.3184 69.3387 55.2811 69.2642 55.2439C69.2708 55.2281 69.2521 55.2094 69.2363 55.216C69.1975 55.2148 69.2066 55.17 69.1525 55.1881C69.1059 55.1601 69.0594 55.1322 69.0129 55.1043C69.0194 55.0884 69.0008 55.0698 68.9849 55.0764C68.9756 55.0764 68.9663 55.0764 68.957 55.0764C68.9636 55.0605 68.9449 55.0418 68.9291 55.0484C68.8732 55.0205 68.8173 54.9926 68.7615 54.9646C68.7681 54.9488 68.7494 54.9301 68.7336 54.9367C68.7243 54.9367 68.7149 54.9367 68.7056 54.9367C68.7122 54.9208 68.6936 54.9022 68.6777 54.9088C68.6405 54.8901 68.6032 54.8716 68.566 54.8529C68.5726 54.8369 68.5539 54.8184 68.5381 54.825C68.5288 54.825 68.5194 54.825 68.5101 54.825C68.5167 54.8091 68.4981 54.7905 68.4822 54.7971C68.4729 54.7971 68.4635 54.7971 68.4543 54.7971C68.4609 54.7812 68.4422 54.7625 68.4263 54.7691C68.3891 54.7505 68.3518 54.7319 68.3146 54.7133C68.3212 54.6973 68.3026 54.6788 68.2867 54.6853C68.2774 54.6853 68.268 54.6853 68.2588 54.6853C68.2654 54.6695 68.2467 54.6508 68.2308 54.6574C68.2029 54.5689 68.175 54.4806 68.147 54.3921C68.1936 54.4061 68.2401 54.42 68.2867 54.434C68.2801 54.4498 68.2988 54.4685 68.3146 54.4619C68.3891 54.4991 68.4635 54.5364 68.5381 54.5736C68.5315 54.5896 68.5501 54.6081 68.566 54.6016C68.6218 54.6295 68.6777 54.6574 68.7336 54.6853C68.7428 54.7552 68.7522 54.825 68.7615 54.8948C68.7847 54.9181 68.8081 54.9414 68.8313 54.9646C69.1153 55.1322 69.3992 55.2998 69.6832 55.4674C69.6273 55.4394 69.5714 55.4115 69.5156 55.3836Z" fill="#000A0A"/>
<path d="M60.718 76.2466C60.6178 70.8097 59.3028 65.8867 56.8359 61.4302C55.8552 60.311 55.2416 58.9637 55.1881 57.4642C55.1441 56.2301 55.2768 55.0247 55.4115 53.8614C55.5791 53.8381 55.7467 53.8148 55.9142 53.7915C55.9143 53.8697 55.9468 53.7746 55.9701 53.7915C56.2446 54.1286 56.2099 54.6803 56.2494 55.1321C56.1935 55.6302 56.1377 56.1283 56.0818 56.6264C56.2307 56.7613 56.3798 56.8964 56.5287 57.0313C56.389 57.0453 56.2494 57.0593 56.1097 57.0732C56.0955 58.2128 56.3177 59.2148 56.808 60.1454C57.4411 61.0578 58.074 61.9701 58.7071 62.8825C59.187 63.4288 59.7299 64.0224 60.3131 64.4326C61.1035 61.8684 61.3695 59.0864 61.3325 56.1795C61.2115 56.1935 61.0904 56.2074 60.9694 56.2214C61.3564 55.8134 61.4636 55.34 61.5559 54.811C61.5373 53.7497 61.5187 52.6883 61.5001 51.627C62.037 51.3737 62.5792 51.1437 63.092 50.8311C63.3992 50.859 63.7065 50.8869 64.0137 50.9148C64.0695 50.9381 64.1254 50.9614 64.1813 50.9847C64.5201 51.636 64.6631 52.3339 64.7398 53.0933C64.7298 53.2711 64.7909 53.3738 64.7119 53.5262C63.1164 56.6055 61.8906 59.3949 61.4442 62.9663C60.9072 67.2621 61.3048 71.8817 61.5838 76.1628C61.2953 76.1907 61.0066 76.2187 60.718 76.2466Z" fill="#378651"/>
<path d="M63.0921 50.831C63.2224 50.7472 63.3527 50.6634 63.4831 50.5796C63.6599 50.6913 63.8369 50.803 64.0137 50.9147C63.7065 50.8868 63.3993 50.8589 63.0921 50.831Z" fill="#193D25"/>
<path d="M43.2901 75.5764C40.5722 75.6012 38.075 75.1037 35.8889 73.8448C35.8954 73.8289 35.8768 73.8103 35.8609 73.8169C35.8051 73.789 35.7492 73.761 35.6934 73.7331C35.6999 73.7172 35.6813 73.6986 35.6654 73.7052C35.5724 73.6493 35.4792 73.5934 35.3861 73.5376C34.9403 73.1906 34.453 72.8597 34.0316 72.4204C33.4124 72.076 32.7934 71.7315 32.1743 71.387C32.1584 71.3936 32.1398 71.375 32.1464 71.3591C32.1464 70.9309 32.1464 70.5026 32.1464 70.0744C32.3597 65.663 33.3738 61.4868 36.615 58.3441C37.2248 58.6979 37.8346 59.0516 38.4444 59.4054C39.0682 58.7617 39.7602 58.2848 40.4553 57.8135C40.6089 57.8786 40.7625 57.9438 40.9161 58.009C40.9906 58.0462 41.065 58.0835 41.1395 58.1207C41.1329 58.1366 41.1516 58.1552 41.1675 58.1486C42.0858 58.6215 43.0894 59.488 43.4856 60.4667C44.3915 62.9576 45.2642 65.6317 45.5803 68.3567C45.8029 70.2766 45.9583 72.5936 45.0636 74.2358C44.7983 74.2684 44.5329 74.301 44.2676 74.3336C44.1606 74.7478 44.0534 75.1622 43.9464 75.5764C43.7277 75.5764 43.5088 75.5764 43.2901 75.5764Z" fill="#03696B"/>
<path d="M32.8727 72.0291C32.6399 71.8149 32.4071 71.6009 32.1744 71.3867C32.7936 71.7311 33.4126 72.0757 34.0317 72.4201C34.4531 72.8594 34.9404 73.1903 35.3863 73.5373C34.5789 72.9535 33.7205 72.5138 32.8727 72.0291Z" fill="#000707"/>
<path d="M36.6152 58.3438C37.0346 57.8859 37.5337 57.5208 38.0117 57.1708C38.2119 57.0404 38.412 56.9102 38.6122 56.7798C39.3802 57.1895 40.1483 57.599 40.9163 58.0087C40.7627 57.9435 40.6091 57.8783 40.4555 57.8132C39.7604 58.2845 39.0684 58.7614 38.4446 59.4051C37.8348 59.0513 37.225 58.6976 36.6152 58.3438Z" fill="#04999C"/>
<path d="M58.0926 57.3385C57.7435 57.3385 57.3944 57.3385 57.0453 57.3385C56.7613 57.0918 56.4774 56.845 56.1934 56.5983C56.2121 56.1096 56.2306 55.6208 56.2493 55.132C56.2098 54.6802 56.2445 54.1285 55.97 53.7914C55.9094 53.7077 55.849 53.6239 55.7884 53.5401C54.3832 52.5885 52.8304 51.9702 51.3058 51.3058C51.1103 50.4726 50.9148 49.6393 50.7193 48.8061C50.6634 48.6199 50.6076 48.4337 50.5517 48.2475C50.5444 48.2228 50.5133 48.2363 50.4959 48.2335C50.4587 48.2056 50.4214 48.1777 50.3842 48.1498C50.319 47.9543 50.2538 47.7588 50.1887 47.5632C50.1517 47.5695 50.1517 47.5291 50.1887 47.5353C49.5084 46.7716 48.6886 46.3279 47.8147 45.9992C47.7775 45.9806 47.7402 45.962 47.703 45.9434C47.5865 45.8224 47.4703 45.7013 47.3538 45.5803C46.7626 45.2544 46.1715 44.9286 45.5803 44.6028C45.0797 43.8994 44.4611 43.0671 44.2118 42.2707C44.1142 41.9586 44.2298 41.5251 44.2677 41.2233C44.3235 41.2513 44.3794 41.2792 44.4352 41.3071C44.4492 41.363 44.4632 41.4188 44.4771 41.4747C45.0078 41.7633 45.5384 42.0519 46.0691 42.3405C46.395 42.7502 46.7207 43.1597 47.0466 43.5694C47.8186 42.7021 49.3932 42.1535 50.2864 43.0387C51.0898 43.835 51.5965 44.9407 52.828 45.0776C52.6557 42.7827 52.4835 40.4879 52.3113 38.193C52.8419 37.9975 53.3726 37.802 53.9032 37.6065C53.9917 36.9222 54.0801 36.238 54.1686 35.5537C57.0761 36.9155 60.5692 36.4152 63.8739 36.2519C64.0797 37.2578 64.1965 38.2986 64.3208 39.3381C64.4418 41.349 64.5629 43.3599 64.6839 45.3708C64.6652 46.1062 64.6467 46.8418 64.628 47.5772C64.5225 48.2149 64.3261 48.8036 64.0694 49.3786C63.8739 49.7789 63.6784 50.1793 63.4829 50.5796C63.3526 50.6634 63.2223 50.7472 63.0919 50.831C62.5791 51.1437 62.0369 51.3736 61.5 51.6269C61.5186 52.6882 61.5372 53.7496 61.5558 54.8109C61.4635 55.34 61.3563 55.8133 60.9693 56.2213C60.2697 57.05 59.0029 57.2995 58.0926 57.3385ZM50.1887 47.5353C50.1887 47.5446 50.1887 47.554 50.1887 47.5632C50.2256 47.5695 50.2257 47.5291 50.1887 47.5353Z" fill="#F2BF99"/>
<path d="M48.7086 47.2005C48.5831 46.713 48.2018 46.3335 47.8148 45.9995C48.6888 46.3282 49.5086 46.7719 50.1888 47.5356C50.2259 47.5294 50.2258 47.5698 50.1888 47.5635C50.2539 47.759 50.3192 47.9546 50.3843 48.1501C50.3751 48.1501 50.3657 48.1501 50.3564 48.1501C49.8071 47.8336 49.2579 47.517 48.7086 47.2005ZM50.1888 47.5356C50.1518 47.5294 50.1518 47.5698 50.1888 47.5635C50.1888 47.5543 50.1888 47.5449 50.1888 47.5356Z" fill="#E6863E"/>
<path d="M45.5803 44.603C46.1715 44.9289 46.7626 45.2547 47.3538 45.5805C47.4702 45.7015 47.5865 45.8226 47.7029 45.9436C47.0932 45.6085 46.4833 45.2733 45.8736 44.9382C45.7758 44.8265 45.6781 44.7147 45.5803 44.603Z" fill="#E6863E"/>
<path d="M44.4354 41.3071C44.9707 41.605 45.506 41.9029 46.0413 42.2008C46.6613 41.5925 47.3689 41.1784 48.2477 41.1954C48.4944 41.2884 48.7412 41.3816 48.9878 41.4747C49.6492 41.9832 49.9078 42.8222 50.6636 43.2063C50.7008 43.2249 50.7381 43.2435 50.7753 43.2621C50.7687 43.2781 50.7874 43.2967 50.8032 43.2901C51.1304 43.4603 51.4835 43.6334 51.8366 43.695C51.6598 41.3956 51.4828 39.096 51.3059 36.7965C51.8366 36.6103 52.3673 36.4242 52.8979 36.2379C52.9864 35.5444 53.0748 34.8508 53.1632 34.1572C54.6939 34.7603 56.4611 35.2407 58.2743 35.1347C59.7079 35.051 61.1417 34.9672 62.5754 34.8834C62.9094 34.8638 63.1872 34.9253 63.4831 34.9951C63.6134 35.414 63.7437 35.833 63.8741 36.2519C60.5694 36.4151 57.0762 36.9155 54.1687 35.5537C54.0802 36.2379 53.9918 36.9222 53.9034 37.6065C53.3727 37.802 52.8421 37.9975 52.3114 38.193C52.4837 40.4879 52.6558 42.7826 52.8281 45.0775C51.5966 44.9407 51.0899 43.835 50.2865 43.0387C49.3934 42.1535 47.8187 42.7021 47.0468 43.5694C46.7209 43.1597 46.3951 42.7501 46.0692 42.3405C45.5386 42.0519 45.0079 41.7632 44.4773 41.4747C44.4633 41.4188 44.4493 41.3629 44.4354 41.3071Z" fill="#E6863E"/>
<path d="M43.4858 60.4664C43.0896 59.4876 42.086 58.6211 41.1677 58.1482C41.1742 58.1324 41.1556 58.1137 41.1397 58.1203C41.0652 58.0831 40.9908 58.0458 40.9163 58.0086C40.1482 57.5989 39.3802 57.1894 38.6121 56.7797C38.4119 56.9101 38.2119 57.0404 38.0117 57.1707C38.1979 56.9752 38.384 56.7797 38.5702 56.5842C39.1894 56.9286 39.8084 57.2732 40.4275 57.6176C41.0325 57.0114 41.6839 56.6176 42.4105 56.3049C44.284 55.4988 46.1829 54.7606 48.122 54.1125C47.5076 53.7634 46.8931 53.4143 46.2787 53.0651C46.2973 52.0923 46.3159 51.1194 46.3345 50.1465C46.3811 49.9463 46.4276 49.7463 46.4742 49.5461C46.66 49.0672 46.8488 48.527 47.1445 48.0938C47.7542 48.4289 48.3641 48.764 48.9739 49.0992C49.4021 48.8292 49.8304 48.5593 50.2586 48.2893C50.3377 48.2706 50.4169 48.2521 50.496 48.2334C50.5134 48.2362 50.5445 48.2227 50.5519 48.2474C50.6077 48.4336 50.6636 48.6197 50.7194 48.8059C50.9149 49.6391 51.1104 50.4724 51.3059 51.3056C51.3758 51.3894 51.4456 51.4732 51.5154 51.557C53.0048 52.1951 54.6131 52.8028 55.9142 53.7913C55.7467 53.8145 55.5791 53.8379 55.4115 53.8611C55.2768 55.0244 55.1441 56.2298 55.1881 57.464C55.2416 58.9634 55.8553 60.3107 56.8359 61.4299C59.3028 65.8864 60.6179 70.8094 60.7181 76.2463C57.3758 76.5628 54.0337 76.8794 50.6915 77.1959C48.2058 77.4286 45.7201 77.6615 43.2344 77.8942C43.2576 77.7545 43.281 77.6149 43.3042 77.4752C43.9196 77.5229 44.6817 77.5539 45.371 77.5032C45.478 77.0889 45.5852 76.6745 45.6922 76.2603C45.9715 76.2231 46.2508 76.1858 46.5301 76.1486C47.4763 74.094 47.1891 71.3161 46.8093 69.0546C46.4565 66.9532 45.7605 64.6851 45.0498 62.7147C44.7474 61.8761 44.0713 61.174 43.4858 60.4664Z" fill="#44AD6A"/>
<path d="M43.0667 77.8946C43.0853 77.6619 43.1039 77.4291 43.1225 77.1964C43.1784 76.6564 43.2343 76.1164 43.2901 75.5765C43.5089 75.5765 43.7277 75.5765 43.9465 75.5765C44.0535 75.1622 44.1606 74.7479 44.2676 74.3336C44.533 74.301 44.7983 74.2685 45.0636 74.2359C45.9584 72.5936 45.803 70.2766 45.5803 68.3568C45.2643 65.6318 44.3915 62.9576 43.4856 60.4668C44.0711 61.1744 44.7472 61.8765 45.0497 62.7151C45.7604 64.6856 46.4564 66.9536 46.8092 69.055C47.1889 71.3165 47.4761 74.0944 46.5299 76.149C46.2506 76.1862 45.9713 76.2235 45.692 76.2607C45.585 76.675 45.4779 77.0893 45.3708 77.5036C44.6816 77.5543 43.9194 77.5234 43.3041 77.4757C43.2809 77.6153 43.2575 77.7549 43.2343 77.8946C43.1784 77.8946 43.1225 77.8946 43.0667 77.8946Z" fill="#27633D"/>
<path d="M64.8795 53.3169C64.8888 53.3169 64.8981 53.3169 64.9074 53.3169C65.0821 53.64 65.4567 53.8799 65.7732 54.0151C65.8617 54.0617 65.9501 54.1082 66.0385 54.1548C66.882 54.5986 68.3106 54.5979 69.1526 55.1881C69.2067 55.17 69.1977 55.2148 69.2364 55.2161C69.2298 55.2319 69.2485 55.2506 69.2644 55.244C69.3389 55.2812 69.4133 55.3185 69.4878 55.3557C69.4812 55.3716 69.4999 55.3902 69.5157 55.3837C69.5716 55.4116 69.6274 55.4395 69.6833 55.4674C71.1271 60.6018 72.0037 66.0167 72.169 71.6943C72.0386 71.7781 71.9084 71.8619 71.778 71.9456C71.8525 73.0256 71.9269 74.1055 72.0014 75.1854C68.5661 75.5113 65.1308 75.8371 61.6956 76.1629C61.4312 71.874 61.0733 67.3279 61.6118 63.0502C62.0456 59.6046 63.3055 56.5966 64.9074 53.6381C64.8981 53.5311 64.8888 53.4239 64.8795 53.3169Z" fill="#44AD6A"/>
<path d="M61.5837 76.1627C61.3046 71.8817 60.907 67.2621 61.4441 62.9662C61.8905 59.3949 63.1162 56.6054 64.7118 53.5262C64.7908 53.3738 64.7296 53.271 64.7397 53.0933C64.7863 53.1678 64.8328 53.2422 64.8793 53.3167C64.8886 53.4237 64.898 53.5309 64.9073 53.6379C63.3054 56.5964 62.0454 59.6044 61.6116 63.05C61.0732 67.3277 61.4311 71.8738 61.6954 76.1627C61.6582 76.1627 61.6209 76.1627 61.5837 76.1627Z" fill="#27633D"/>
<path d="M32.733 71.9733C32.4444 71.722 32.1557 71.4706 31.8672 71.2192C31.9602 71.2658 32.0534 71.3123 32.1464 71.3589C32.1399 71.3747 32.1585 71.3934 32.1744 71.3868C32.4071 71.601 32.6399 71.815 32.8726 72.0292C32.826 72.0105 32.7795 71.992 32.733 71.9733Z" fill="#27633D"/>
<path d="M31.8672 71.2193C31.8125 71.2255 31.851 71.1233 31.8393 71.0936C31.9418 70.7538 32.0441 70.4141 32.1465 70.0742C32.1465 70.5024 32.1465 70.9308 32.1465 71.359C32.0535 71.3124 31.9603 71.2659 31.8672 71.2193Z" fill="#44AD6A"/>
<path d="M38.5701 56.5845C39.1643 55.9676 39.8191 55.5848 40.5391 55.2718C42.4192 54.4548 44.3343 53.7274 46.2785 53.0654C46.893 53.4145 47.5074 53.7637 48.1219 54.1128C46.1828 54.7608 44.2838 55.4991 42.4104 56.3052C41.6838 56.6179 41.0323 57.0117 40.4274 57.6179C39.8083 57.2735 39.1892 56.9289 38.5701 56.5845Z" fill="#62C184"/>
<path d="M65.7732 54.0151C65.9855 54.0314 66.2223 54.167 66.4295 54.0989C67.0251 54.2572 67.617 54.408 68.1751 54.6575C68.1844 54.6575 68.1938 54.6575 68.203 54.6575C68.2123 54.6575 68.2217 54.6575 68.231 54.6575C68.2244 54.6734 68.243 54.692 68.2589 54.6854C68.2682 54.6854 68.2776 54.6854 68.2868 54.6854C68.2802 54.7013 68.2989 54.72 68.3148 54.7134C68.352 54.732 68.3893 54.7506 68.4265 54.7692C68.4199 54.7851 68.4385 54.8037 68.4544 54.7972C68.4637 54.7972 68.4731 54.7972 68.4823 54.7972C68.4757 54.813 68.4944 54.8317 68.5103 54.8251C68.5195 54.8251 68.5289 54.8251 68.5382 54.8251C68.5316 54.8409 68.5503 54.8596 68.5661 54.853C68.6033 54.8717 68.6406 54.8902 68.6778 54.9089C68.6712 54.9247 68.6899 54.9434 68.7058 54.9368C68.715 54.9368 68.7244 54.9368 68.7337 54.9368C68.7271 54.9528 68.7458 54.9713 68.7616 54.9647C68.8175 54.9927 68.8733 55.0206 68.9292 55.0485C68.9226 55.0644 68.9413 55.083 68.9571 55.0764C68.9664 55.0764 68.9758 55.0764 68.9851 55.0764C68.9785 55.0923 68.9971 55.111 69.013 55.1044C69.0596 55.1323 69.106 55.1602 69.1526 55.1882C68.3106 54.598 66.882 54.5986 66.0385 54.1548C65.9501 54.1082 65.8617 54.0617 65.7732 54.0151Z" fill="#62C184"/>
<path d="M65.7732 54.0151C65.4567 53.8799 65.0821 53.64 64.9074 53.3169C65.8648 53.5811 66.8027 53.8736 67.6724 54.3503C67.6658 54.3662 67.6844 54.3848 67.7003 54.3782C67.7096 54.3782 67.719 54.3782 67.7282 54.3782C67.7216 54.3941 67.7403 54.4127 67.7562 54.4061C67.7654 54.4061 67.7748 54.4061 67.7841 54.4061C67.7775 54.422 67.7962 54.4407 67.812 54.4341C67.8492 54.4527 67.8865 54.4713 67.9237 54.4899C67.9171 54.5058 67.9358 54.5244 67.9517 54.5178C67.9609 54.5178 67.9703 54.5178 67.9796 54.5178C67.973 54.5338 67.9917 54.5524 68.0075 54.5458C68.0168 54.5458 68.0262 54.5458 68.0354 54.5458C68.0289 54.5616 68.0475 54.5803 68.0634 54.5737C68.1006 54.5924 68.1379 54.6109 68.1751 54.6296C68.1751 54.6388 68.1751 54.6482 68.1751 54.6575C67.617 54.408 67.0251 54.2572 66.4295 54.0989C66.2223 54.1669 65.9854 54.0314 65.7732 54.0151Z" fill="#27633D"/>
<path d="M55.9142 53.7914C54.613 52.8029 53.0047 52.1952 51.5153 51.557C51.4455 51.4732 51.3757 51.3895 51.3058 51.3057C52.8304 51.9702 54.3832 52.5884 55.7885 53.54C55.849 53.6238 55.9095 53.7076 55.97 53.7914C55.9468 53.7744 55.9143 53.8696 55.9142 53.7914Z" fill="#27633D"/>
<path d="M47.1444 48.0937C47.4144 47.9075 47.6843 47.7214 47.9543 47.5352C48.4524 47.8144 48.9505 48.0937 49.4486 48.373C49.6906 48.2892 49.9326 48.2055 50.1747 48.1217C50.2353 48.1309 50.2957 48.1403 50.3562 48.1496C50.3655 48.1496 50.3749 48.1496 50.3842 48.1496C50.4214 48.1775 50.4587 48.2055 50.4959 48.2334C50.4168 48.252 50.3376 48.2706 50.2585 48.2892C49.8303 48.5593 49.402 48.8292 48.9738 49.0992C48.364 48.764 47.7541 48.4289 47.1444 48.0937Z" fill="#62C184"/>
<path d="M47.9543 47.5354C48.1545 47.4145 48.3546 47.2934 48.5548 47.1724C48.606 47.1816 48.6573 47.191 48.7084 47.2003C49.2577 47.5168 49.8069 47.8334 50.3562 48.1499C50.2957 48.1406 50.2353 48.1312 50.1747 48.122C49.9326 48.2057 49.6906 48.2895 49.4485 48.3733C48.9505 48.094 48.4524 47.8147 47.9543 47.5354Z" fill="#27633D"/>
</svg>
